<?xml version="1.0" standalone="no"?>
<!DOCTYPE svg PUBLIC "-//W3C//DTD SVG 20010904//EN"
 "http://www.w3.org/TR/2001/REC-SVG-20010904/DTD/svg10.dtd">
<svg version="1.0" xmlns="http://www.w3.org/2000/svg"
 width="1500.000000pt" height="500.000000pt" viewBox="0 0 1500.000000 500.000000"
 preserveAspectRatio="xMidYMid meet">

<g transform="translate(0.000000,500.000000) scale(0.100000,-0.100000)"
fill="#000000" stroke="none">
<path d="M0 4315 l0 -685 28 0 c15 0 32 4 38 9 5 5 20 11 34 13 19 2 26 10 28
31 3 26 6 27 57 27 51 0 54 -1 57 -27 3 -26 6 -28 58 -31 30 -1 65 -7 77 -14
23 -11 53 -5 53 12 0 5 -11 10 -24 10 -28 0 -39 22 -23 44 10 12 32 15 122 13
l110 -2 3 -27 c3 -28 3 -28 -58 -28 -45 0 -60 -3 -57 -12 2 -7 13 -12 23 -11
22 3 244 14 259 13 6 -1 39 -4 74 -6 44 -4 61 -3 57 5 -4 6 -19 10 -34 10 -65
-4 -72 -1 -72 31 l0 30 121 0 120 0 -3 -32 c-2 -27 -7 -33 -25 -31 -13 2 -23
-2 -23 -7 0 -6 11 -10 25 -10 14 0 25 5 25 10 0 6 14 10 30 10 27 0 30 3 30
30 l0 30 65 0 65 0 0 -40 c0 -37 2 -40 28 -40 15 0 32 4 38 9 5 5 23 11 39 13
24 2 31 8 33 31 3 23 8 27 33 27 26 0 29 3 29 30 0 30 0 30 -59 30 -58 0 -60
-1 -63 -27 -3 -25 -7 -28 -38 -28 -31 0 -35 3 -38 28 -2 19 -9 27 -23 27 -14
0 -19 7 -19 29 0 22 5 30 24 33 22 4 25 1 28 -26 3 -27 7 -31 33 -31 21 0 31
5 33 18 5 25 -17 49 -39 42 -15 -5 -19 -1 -19 18 0 32 -15 43 -72 51 -38 6
-48 11 -48 26 0 10 -4 22 -10 25 -11 7 -12 145 -2 215 6 39 10 45 32 45 23 0
25 4 28 58 2 35 8 58 15 59 7 0 19 1 27 2 8 1 17 14 20 31 4 25 10 30 35 30
29 1 30 2 33 58 3 55 4 57 32 57 23 0 29 -5 32 -26 3 -26 4 -26 86 -26 86 -1
98 3 104 37 2 12 11 20 22 20 19 0 29 13 40 48 6 19 46 22 130 11 43 -6 46 -9
46 -35 0 -26 4 -29 30 -29 l30 0 0 -60 c0 -60 0 -60 30 -60 28 0 29 -1 32 -57
3 -56 4 -58 33 -63 l30 -5 5 -185 5 -185 25 0 25 0 6 165 c3 91 7 173 8 183 1
21 40 23 42 2 1 -8 3 -19 4 -25 1 -5 3 -26 4 -45 1 -33 3 -35 36 -35 32 0 35
2 35 30 0 25 4 30 25 30 25 0 25 -1 25 -90 0 -89 0 -90 -24 -90 -21 0 -25 6
-28 33 -3 28 -7 32 -35 35 -32 3 -33 2 -33 -32 0 -33 2 -36 30 -36 29 0 29 -1
32 -62 3 -63 3 -63 33 -63 25 0 31 5 35 30 4 24 11 31 32 33 21 3 27 9 30 30
2 21 8 27 28 27 24 0 25 -3 25 -55 0 -53 -1 -55 -30 -60 -21 -4 -30 -11 -31
-25 -1 -31 15 -56 33 -53 11 2 19 -6 23 -22 6 -25 7 -25 125 -27 65 -1 124 -4
130 -7 7 -2 12 -15 11 -28 -1 -18 -7 -24 -33 -26 -27 -3 -33 -8 -33 -26 0 -19
-7 -25 -37 -30 -21 -3 -50 -6 -65 -6 -16 0 -28 -4 -28 -9 0 -5 152 -9 345 -9
190 0 345 3 345 8 0 5 -12 10 -27 12 -22 2 -29 9 -31 31 -3 24 -8 27 -38 27
-30 0 -34 -3 -34 -25 0 -20 -5 -25 -25 -25 -20 0 -25 5 -25 25 0 21 -5 25 -29
25 -21 0 -32 6 -36 21 -4 12 -3 25 2 30 4 4 46 9 93 11 l85 3 5 30 c4 24 10
30 30 30 20 0 26 6 28 28 3 21 10 29 31 33 27 6 28 8 35 87 3 45 6 112 6 150
0 38 4 67 10 67 6 0 10 14 10 30 0 27 3 30 30 30 27 0 30 3 30 30 0 28 3 30
35 30 32 0 35 2 35 29 0 25 4 30 28 33 21 2 28 9 30 31 2 15 7 27 12 27 5 0 4
-15 -1 -32 -5 -18 -9 -34 -9 -35 0 -2 -7 -3 -15 -3 -9 0 -15 -9 -15 -22 0 -17
3 -19 9 -9 5 7 13 11 19 7 13 -8 42 3 42 16 0 6 -8 4 -17 -3 -13 -11 -13 -8 2
13 13 18 29 27 48 28 23 0 27 4 29 33 1 17 1 42 1 54 -1 16 6 22 33 27 27 6
34 12 34 29 0 16 9 26 29 34 19 7 30 19 33 34 2 18 10 25 31 27 15 2 28 9 29
15 0 7 2 17 2 22 3 22 17 33 36 28 17 -5 20 0 20 26 l0 31 59 0 60 0 3 -32 3
-33 60 -1 c58 -1 60 -2 65 -30 5 -28 8 -29 63 -32 56 -3 57 -4 57 -32 l0 -30
66 0 65 0 -3 -27 c-3 -28 -2 -28 59 -31 61 -3 62 -3 65 -34 l3 -32 58 3 c55 2
57 2 57 -23 0 -27 14 -40 45 -41 13 0 21 -8 23 -22 3 -20 -1 -23 -27 -23 -29
0 -31 -3 -31 -34 0 -32 -3 -35 -32 -38 -28 -2 -33 -7 -33 -28 0 -21 -6 -26
-33 -28 -28 -3 -32 -7 -32 -32 0 -24 -5 -29 -27 -32 -22 -2 -29 -9 -31 -30 -3
-25 -7 -27 -60 -30 -55 -3 -57 -4 -62 -33 -5 -29 -7 -30 -68 -33 -61 -3 -62
-3 -62 -32 l0 -30 -184 0 -185 0 -3 -27 c-2 -23 -9 -29 -38 -33 -29 -4 -36
-10 -38 -32 -3 -21 -9 -27 -30 -30 -20 -2 -28 -9 -30 -27 -2 -13 1 -28 7 -34
14 -14 14 -67 1 -67 -5 0 -10 -13 -10 -30 0 -28 2 -30 40 -30 38 0 40 2 40 30
0 28 3 30 35 30 32 0 35 -2 35 -30 l0 -30 150 0 150 0 0 30 0 30 95 0 95 0 0
-40 0 -40 154 0 c93 0 157 4 161 10 8 14 52 13 57 -1 3 -8 23 -9 68 -3 61 8
65 11 68 36 4 36 21 40 147 36 l100 -3 3 -37 c3 -34 6 -38 32 -38 26 0 29 4
32 38 l3 37 90 0 90 0 3 -32 c3 -31 4 -32 69 -39 37 -4 104 -4 150 0 l83 6 0
-120 0 -120 -1542 -2 c-849 -1 -1518 -3 -1487 -5 55 -4 57 -5 62 -36 2 -18 3
-35 0 -39 -8 -14 -133 -9 -134 5 -1 6 -2 21 -3 32 -1 13 -9 21 -26 23 -14 2
-29 8 -34 13 -13 12 -46 12 -46 0 0 -15 -61 -19 -75 -4 -16 15 -41 17 -50 3
-8 -12 -72 -13 -77 -2 -1 5 -472 12 -1045 16 l-1043 6 0 -310 0 -310 108 5
c59 2 132 5 162 7 48 2 56 -1 65 -20 7 -15 18 -22 39 -22 23 0 27 -3 23 -20
-7 -26 17 -50 43 -43 18 5 20 1 20 -54 l0 -60 -230 5 -230 5 0 -311 0 -311
220 -3 c121 -2 220 0 220 3 0 3 25 4 55 1 76 -6 107 3 103 31 -2 16 -11 23
-30 25 -22 3 -28 9 -28 28 0 22 3 24 55 24 54 0 55 0 55 -30 0 -27 3 -30 30
-30 23 0 30 -4 30 -20 0 -18 7 -20 64 -20 55 0 64 3 69 20 5 18 14 20 91 20
80 0 86 -1 86 -20 0 -20 5 -21 98 -18 78 2 97 6 97 18 0 11 14 16 56 18 50 3
57 0 62 -18 4 -17 13 -20 66 -20 54 0 61 2 61 20 0 15 7 20 29 20 25 0 30 4
33 28 3 25 6 27 59 30 49 3 57 0 62 -17 6 -24 -10 -41 -40 -41 -16 0 -23 -6
-23 -20 0 -20 7 -20 381 -20 369 0 381 1 386 19 3 12 15 21 32 23 20 2 27 9
29 30 4 30 -18 42 -61 34 -45 -8 -68 4 -65 33 2 20 10 27 33 31 17 3 30 12 31
20 1 8 2 21 2 28 1 6 15 12 32 12 27 0 30 3 30 30 0 27 3 30 30 30 28 0 30 -3
30 -35 0 -30 -3 -35 -24 -35 -15 0 -26 -7 -29 -19 -4 -16 1 -21 22 -23 24 -3
26 -7 32 -63 6 -62 0 -80 -29 -80 -9 0 -18 -7 -20 -15 -2 -13 14 -16 93 -18
91 -3 95 -3 95 17 0 17 6 21 30 21 27 0 30 3 30 30 0 25 4 30 24 30 19 0 25
-6 28 -28 2 -22 8 -28 36 -30 24 -2 32 -8 32 -23 0 -17 8 -19 90 -19 83 0 90
1 90 20 0 19 -7 20 -89 20 l-90 0 -3 33 c-2 26 -8 33 -30 35 -21 3 -27 9 -30
30 -2 20 -9 28 -28 30 -34 5 -43 16 -35 41 6 20 13 22 63 19 54 -3 57 -5 60
-30 l3 -28 305 0 304 0 0 -29 c0 -25 -4 -30 -27 -33 -23 -2 -29 -8 -31 -35 -3
-29 -7 -33 -33 -33 -22 0 -29 -5 -29 -20 0 -28 56 -29 65 -1 3 12 17 21 33 23
20 2 28 9 30 28 5 34 16 43 41 35 21 -6 21 -11 19 -168 l-3 -162 -849 0 c-671
0 -850 3 -853 12 -3 9 -26 13 -63 13 -57 0 -59 1 -62 28 l-3 27 -187 3 -188 2
0 -30 c0 -26 -3 -30 -29 -30 -16 0 -31 -6 -34 -13 -5 -13 38 -13 -719 -1
l-478 7 0 -891 0 -892 7500 0 7500 0 0 2500 0 2500 -6100 0 -6100 0 0 -25 c0
-21 5 -25 30 -25 l30 0 0 -86 c0 -75 -2 -85 -17 -83 -10 1 -25 -1 -34 -5 -9
-4 -41 -6 -70 -4 l-54 3 -3 62 -3 62 33 3 c28 2 34 7 36 31 3 23 0 27 -22 27
-23 0 -31 9 -27 33 0 4 -606 7 -1349 7 l-1350 0 0 -685z m2430 586 c0 -65 7
-81 36 -81 32 0 34 -37 2 -42 -18 -2 -24 -11 -26 -35 -3 -28 -7 -31 -41 -35
-73 -7 -86 2 -89 57 -2 27 1 58 6 69 6 12 13 29 16 39 3 9 9 17 13 16 32 -5
43 3 43 31 0 23 4 30 20 30 17 0 20 -7 20 -49z m680 20 c0 -25 5 -31 30 -36
17 -4 29 -12 28 -18 -1 -7 3 -22 10 -35 7 -12 12 -44 10 -70 l-3 -47 -65 0
-65 0 1 35 c1 19 5 72 9 118 7 70 11 82 26 82 14 0 19 -7 19 -29z m9183 -30
c5 -5 7 -32 5 -62 l-3 -54 -60 -3 c-33 -2 -79 0 -103 3 l-43 6 3 57 c3 56 3
56 38 60 19 2 37 6 40 9 7 7 113 -7 123 -16z m-365 -123 c5 -64 12 -59 -78
-62 -25 -1 -54 1 -65 5 -11 4 -14 8 -7 8 8 1 12 18 12 50 0 73 5 81 56 81 28
0 44 4 44 12 0 7 8 2 17 -12 9 -13 19 -50 21 -82z m725 66 c14 -4 17 -17 17
-64 0 -66 -10 -74 -87 -63 -41 5 -43 7 -43 39 0 33 -1 34 -40 34 -33 0 -40 3
-40 20 0 18 10 23 38 19 4 -1 6 -5 5 -10 -2 -5 4 -9 13 -9 11 0 13 6 9 20 -6
18 -1 19 52 19 32 0 66 -3 76 -5z m-10593 -61 c1 -26 3 -79 4 -118 l1 -70 -54
-3 c-37 -2 -57 1 -62 10 -12 18 -11 96 2 142 9 33 14 37 35 33 20 -3 26 1 31
22 6 26 22 43 33 36 4 -2 8 -26 10 -52z m1420 22 c0 -20 6 -27 28 -31 21 -4
30 -14 40 -45 15 -49 15 -112 0 -127 -16 -16 -103 -15 -116 1 -11 13 -11 102
1 113 4 4 7 31 7 61 0 46 3 53 20 53 15 0 20 -7 20 -25z m9482 -2 c2 -16 9
-28 18 -29 40 -3 46 -6 50 -26 7 -38 5 -172 -2 -190 -6 -15 -20 -18 -72 -18
l-65 0 5 73 c3 39 7 77 9 84 2 7 0 15 -6 18 -7 5 -7 59 0 105 1 3 14 7 30 8
26 2 30 -2 33 -25z m-1742 -58 c0 -19 6 -24 33 -27 25 -2 33 -8 35 -26 3 -18
8 -23 23 -19 12 3 22 0 26 -9 6 -17 39 -19 46 -1 3 7 6 6 6 -5 1 -9 -3 -20 -9
-23 -5 -3 -10 -12 -9 -18 0 -9 2 -9 6 1 7 17 23 15 23 -2 0 -8 4 -17 8 -20 4
-2 8 29 7 70 0 55 3 73 12 70 7 -3 16 1 20 9 5 8 26 15 48 17 38 3 39 2 52
-42 8 -25 12 -63 11 -85 -3 -37 -5 -40 -35 -43 -37 -4 -44 -21 -13 -29 28 -8
25 -21 -4 -16 -13 3 -27 0 -30 -6 -5 -7 4 -11 24 -11 28 0 31 -3 28 -27 -3
-25 1 -28 29 -31 28 -3 32 -7 35 -35 2 -27 7 -32 28 -32 20 0 26 -6 30 -30 4
-24 10 -30 30 -30 20 0 26 -6 30 -30 4 -24 10 -30 30 -30 19 0 26 -6 28 -25 2
-14 8 -29 13 -34 5 -6 9 -35 9 -66 0 -32 3 -98 6 -148 7 -89 8 -91 33 -94 20
-2 27 -10 31 -33 3 -17 12 -31 20 -31 8 -1 20 -2 27 -3 6 0 13 -13 15 -28 l3
-28 93 -3 93 -3 -3 -27 c-2 -22 -9 -28 -35 -30 -27 -3 -33 -7 -33 -28 0 -19
-5 -24 -25 -24 -20 0 -25 5 -25 25 0 22 -4 25 -34 25 -30 0 -35 -3 -38 -27 -2
-22 -9 -29 -30 -31 -16 -2 -28 -7 -28 -12 0 -5 155 -8 345 -8 193 0 345 4 345
9 0 5 -12 9 -27 9 -16 0 -45 3 -65 6 -31 5 -38 11 -38 30 0 18 -6 23 -32 26
-24 2 -32 8 -35 26 -1 12 3 25 10 28 8 3 67 6 133 7 l119 2 3 28 c3 21 9 27
27 27 46 0 43 67 -3 72 -26 3 -27 6 -27 58 0 53 1 55 28 58 24 3 27 0 27 -27
0 -28 3 -31 29 -31 26 0 30 -4 33 -32 3 -29 6 -33 33 -33 30 0 30 0 33 63 3
62 3 62 33 62 28 0 30 2 27 33 -3 28 -6 32 -33 32 -27 0 -30 -4 -33 -32 -3
-27 -7 -33 -28 -33 -24 0 -24 1 -24 90 0 89 0 90 24 90 19 0 25 -6 28 -27 2
-23 8 -29 35 -31 l32 -3 3 63 c3 60 4 63 28 63 l25 0 3 -181 2 -182 25 -4 c13
-3 27 -3 30 0 3 3 5 88 5 189 l0 183 30 0 30 0 0 60 c0 60 0 60 30 60 32 0 37
10 42 85 3 35 6 40 31 43 22 3 27 8 27 32 0 28 1 28 73 35 97 9 111 6 115 -28
4 -33 33 -37 47 -5 12 28 78 41 145 30 40 -7 45 -11 50 -37 4 -25 10 -31 38
-33 31 -3 32 -4 32 -52 0 -45 2 -49 29 -55 23 -5 31 -13 33 -33 2 -21 10 -28
33 -32 23 -4 31 -12 36 -35 4 -17 7 -25 8 -20 1 6 6 3 11 -5 8 -12 10 -12 11
5 0 14 3 11 10 -10 5 -16 7 -35 4 -42 -2 -7 0 -15 5 -18 13 -8 13 -252 0 -260
-5 -3 -10 -14 -10 -24 0 -19 -35 -31 -85 -31 -23 0 -35 -17 -35 -50 0 -13 -9
-20 -27 -22 -22 -2 -28 -8 -28 -28 0 -21 5 -25 30 -25 17 0 31 6 31 13 1 6 2
19 3 27 1 9 11 15 26 15 21 0 25 -5 25 -30 0 -23 -4 -30 -20 -30 -16 0 -20 -7
-20 -31 0 -29 -2 -30 -37 -27 -33 3 -38 7 -41 31 -3 26 -5 27 -63 27 -59 0
-59 0 -59 -30 0 -27 3 -30 29 -30 25 0 30 -4 33 -27 3 -24 8 -28 41 -31 20 -2
37 -7 37 -13 0 -5 13 -9 29 -9 27 0 30 3 33 38 l3 37 63 3 c62 3 62 3 62 33 0
27 3 30 28 27 21 -2 28 -9 30 -30 l3 -27 117 -3 117 -3 3 -27 c3 -28 2 -28
-52 -28 -57 0 -82 -13 -43 -24 34 -9 67 -7 102 5 26 10 39 9 73 -6 23 -11 42
-23 42 -28 0 -5 9 -7 21 -4 20 5 20 5 4 -13 -19 -21 -22 -18 31 -35 9 -3 14
-11 11 -19 -4 -9 9 -20 34 -32 21 -11 39 -22 39 -25 0 -3 17 -5 38 -3 20 1 60
-5 87 -14 50 -15 50 -16 20 -23 -48 -12 -781 -29 -1253 -29 -281 0 -432 -3
-432 -10 0 -14 -56 -12 -80 2 -16 10 -24 10 -40 0 -24 -14 -80 -16 -80 -2 0
13 -33 13 -45 1 -6 -5 -21 -11 -35 -13 -17 -2 -25 -9 -25 -23 -1 -37 -14 -45
-75 -45 -62 0 -73 9 -66 55 2 17 13 21 62 25 32 3 -641 7 -1496 10 l-1555 5
-3 119 -3 119 128 -6 c162 -8 196 -1 203 38 l5 30 90 0 90 0 3 -37 c3 -34 6
-38 32 -38 26 0 29 4 32 38 l3 37 120 0 120 0 5 -30 c5 -29 8 -30 70 -39 45
-6 65 -5 68 3 5 14 49 15 57 1 4 -6 68 -10 161 -10 l154 0 0 40 0 41 93 -3 92
-3 3 -27 3 -28 150 0 149 0 0 31 c0 28 2 30 33 27 27 -2 33 -8 35 -30 3 -25 7
-28 43 -28 36 0 39 2 39 28 0 15 -5 33 -12 40 -9 9 -8 21 2 51 16 49 8 71 -24
71 -19 0 -25 6 -28 28 -3 23 -8 27 -40 30 -35 3 -38 6 -38 33 l0 29 -185 0
-185 0 0 30 c0 29 -1 29 -62 32 -61 3 -63 4 -68 33 -5 29 -7 30 -62 33 -53 3
-57 5 -60 30 -2 21 -9 28 -30 30 -21 3 -27 9 -30 30 -2 22 -9 28 -35 30 -29 3
-33 7 -33 33 0 26 -3 29 -30 29 -27 0 -30 3 -30 29 0 25 -4 30 -27 33 -22 2
-29 9 -31 31 -3 24 0 27 27 27 28 0 31 3 31 30 0 29 1 29 63 32 59 3 62 4 65
31 3 26 5 27 63 27 59 0 59 0 59 30 0 29 1 29 63 32 59 3 62 4 65 31 3 26 5
27 63 27 60 0 62 2 62 43 0 14 9 17 63 17 l64 0 0 29 c0 28 2 30 48 33 59 4
62 2 62 -27z m-9657 -162 c4 -2 7 -14 7 -26 0 -21 -4 -22 -90 -22 l-90 0 0 27
c0 21 5 28 28 31 29 5 132 -2 145 -10z m3565 -25 c3 -23 8 -28 32 -28 29 0 29
-1 32 -62 3 -63 3 -63 33 -63 25 -1 30 -5 30 -25 l0 -25 -277 -3 -278 -2 0 28
c0 28 -2 29 -62 36 -34 3 -66 10 -70 14 -4 4 -3 23 4 42 6 19 12 41 14 48 2 8
23 12 59 12 51 0 55 2 55 23 0 13 3 27 7 31 4 3 99 5 212 4 l206 -3 3 -27z
m5152 2 l0 -30 60 0 c57 0 60 -1 60 -25 0 -14 5 -34 12 -44 23 -37 4 -51 -67
-51 l-65 0 0 -30 0 -30 -277 2 -278 3 0 25 c0 18 6 25 20 26 11 1 26 2 33 3 8
1 12 20 12 61 l0 60 30 0 c27 0 30 3 30 30 l0 30 215 0 215 0 0 -30z m-6813
-67 c-3 -10 -5 -4 -5 12 0 17 2 24 5 18 2 -7 2 -21 0 -30z m-2551 -115 c1 -12
-4 -18 -17 -18 -13 0 -19 7 -19 21 0 25 32 22 36 -3z m13184 -3 c0 -16 -27
-27 -36 -14 -3 5 -3 16 0 24 6 17 36 9 36 -10z m-1925 -27 c2 -7 5 -56 7 -108
l4 -95 -44 4 c-34 2 -43 0 -37 -9 5 -8 3 -11 -6 -8 -8 3 -13 14 -12 24 2 14
10 146 13 202 0 9 71 -1 75 -10z m-9295 -94 l0 -95 -35 3 c-20 2 -35 6 -35 11
0 4 0 45 0 92 l0 85 35 0 35 0 0 -96z m-2634 29 c2 -52 1 -53 -27 -53 -28 0
-29 1 -29 56 0 54 0 55 28 52 25 -3 27 -6 28 -55z m734 27 c0 -27 3 -30 30
-30 25 0 30 -4 30 -25 0 -24 -3 -25 -56 -25 l-57 0 7 38 c3 20 6 45 6 55 0 10
8 17 20 17 16 0 20 -7 20 -30z m10966 1 c-1 -31 -16 -33 -16 -2 0 15 8 31 15
31 2 0 2 -13 1 -29z m391 -18 c-3 -10 -5 -2 -5 17 0 19 2 27 5 18 2 -10 2 -26
0 -35z m1711 -7 c2 -61 -3 -65 -80 -57 -32 3 -37 6 -34 25 2 14 12 23 32 26
23 4 30 11 32 33 3 20 9 27 25 27 20 0 23 -6 25 -54z m-9536 -96 l4 -85 29 -5
c24 -4 31 -11 35 -35 4 -24 11 -31 32 -33 21 -3 27 -9 30 -30 2 -21 9 -28 31
-30 23 -3 27 -8 27 -33 l0 -29 280 0 280 0 0 30 c0 27 3 30 30 30 27 0 30 -3
30 -30 0 -27 -3 -30 -30 -30 -27 0 -30 -3 -30 -30 0 -27 -3 -30 -29 -30 -25 0
-30 -4 -33 -27 l-3 -28 -217 -3 -218 -2 0 30 c0 37 -25 45 -116 36 l-64 -7 0
31 c0 27 -3 30 -29 30 -25 0 -30 -4 -33 -27 -2 -22 -9 -29 -33 -33 -24 -4 -31
-11 -33 -33 -3 -23 -8 -27 -33 -27 l-29 0 0 124 c0 122 1 125 23 128 19 3 22
10 25 60 3 54 4 57 32 63 29 6 30 9 30 62 0 84 8 60 12 -37z m5138 80 c0 -5
-5 -10 -11 -10 -8 0 -8 -5 1 -15 10 -13 9 -15 -9 -15 -16 0 -21 6 -21 25 0 18
5 25 20 25 11 0 20 -4 20 -10z m860 -103 c28 -6 29 -9 32 -64 3 -51 6 -58 26
-61 21 -3 22 -6 22 -128 l0 -124 -29 0 c-25 0 -30 4 -33 27 -2 22 -9 29 -33
33 -24 4 -31 11 -33 33 -3 23 -8 27 -33 27 -26 0 -29 -3 -29 -30 l0 -30 -75 7
c-83 7 -105 -3 -105 -43 l0 -24 -220 0 -220 0 0 30 c0 27 -3 30 -30 30 -27 0
-30 3 -30 30 0 27 -3 30 -30 30 -27 0 -30 3 -30 30 0 27 3 30 30 30 27 0 30
-3 30 -30 l0 -30 280 0 280 0 0 29 c0 25 4 30 28 33 21 2 28 9 30 30 3 21 9
27 30 30 21 2 28 9 32 33 4 24 11 31 33 33 24 3 27 8 28 40 5 138 11 174 16
91 4 -53 6 -57 33 -62z m1895 103 c4 -6 -11 -10 -37 -9 -36 1 -39 2 -18 9 36
11 48 11 55 0z m-7038 -20 c1 -11 -4 -20 -13 -20 -16 0 -16 2 -8 24 8 22 19
20 21 -4z m6583 5 c0 -8 -4 -15 -10 -15 -5 0 -10 7 -10 15 0 8 5 15 10 15 6 0
10 -7 10 -15z m450 -57 c0 -33 -4 -48 -9 -42 -9 8 -4 94 5 94 2 0 4 -23 4 -52z
m-342 -66 l3 -102 -46 0 -45 0 0 98 c0 54 2 101 5 104 3 3 23 5 43 4 l37 -1 3
-103z m242 99 c3 0 4 -36 2 -79 -3 -70 -1 -84 23 -123 14 -24 28 -52 32 -61 6
-19 23 -25 23 -8 0 10 -5 23 -29 68 -15 30 0 28 23 -3 15 -19 21 -23 28 -13 6
10 8 10 8 -1 0 -11 4 -10 16 5 13 16 15 16 10 2 -3 -10 -1 -18 3 -18 14 0 21
29 10 36 -6 3 -7 19 -4 34 5 21 2 31 -12 39 -16 9 -16 12 -3 21 12 9 10 10 -9
5 -16 -5 -21 -4 -17 4 4 6 20 11 37 11 l29 0 0 -79 0 -80 -32 -3 c-29 -3 -33
-7 -33 -30 l1 -28 -237 0 -238 0 -3 28 c-2 21 -9 28 -30 30 l-28 3 0 115 c0
69 4 114 10 114 6 0 10 -35 10 -85 0 -50 4 -85 10 -85 6 0 10 -7 10 -16 0 -14
2 -14 16 -3 11 9 12 15 4 17 -8 3 -7 9 3 21 9 9 17 27 20 41 3 14 5 1 4 -27 0
-42 -4 -54 -19 -59 -23 -7 -23 -21 1 -34 12 -6 17 -17 15 -27 -5 -16 2 -18 59
-15 61 3 65 5 65 29 0 14 -3 21 -7 15 -3 -5 -17 -13 -31 -17 l-25 -8 26 25
c24 22 32 24 78 18 63 -8 85 8 56 40 -10 11 -16 21 -14 21 24 8 49 4 49 -8 0
-8 -5 -11 -11 -7 -8 4 -8 0 0 -15 7 -11 16 -21 21 -21 6 0 10 -5 10 -11 0 -6
6 -17 14 -24 12 -12 15 -12 20 0 3 9 -1 15 -10 15 -8 0 -12 5 -9 11 4 6 13 8
21 5 21 -8 44 4 43 23 0 10 -2 11 -6 4 -2 -8 -22 -13 -44 -13 l-39 0 0 98 c0
54 3 102 6 105 6 5 47 4 74 -2z m-9549 -38 c1 -21 2 -65 3 -98 l1 -60 -37 -3
-38 -3 0 100 0 101 35 0 c34 0 35 -2 36 -37z m249 -64 l0 -100 -35 3 c-20 2
-35 6 -35 11 0 4 0 48 0 97 l0 90 35 0 35 0 0 -101z m9361 78 c-10 -9 -11 -8
-5 6 3 10 9 15 12 12 3 -3 0 -11 -7 -18z m-12183 -78 c3 -80 2 -87 -17 -92
-11 -2 -22 -2 -25 1 -9 8 -7 167 1 176 4 4 14 5 22 4 12 -2 16 -23 19 -89z
m432 11 c0 -44 1 -83 3 -87 1 -5 -10 -9 -25 -11 l-28 -3 0 90 c0 90 0 91 25
91 25 0 25 -1 25 -80z m250 0 c0 -44 1 -83 3 -87 1 -5 -10 -9 -25 -11 l-28 -3
0 90 c0 90 0 91 25 91 25 0 25 -1 25 -80z m9044 -17 c8 -87 2 -99 -37 -89 -21
5 -22 10 -19 90 3 70 6 86 20 89 26 6 29 -2 36 -90z m240 85 c3 -7 7 -48 10
-90 5 -69 4 -77 -13 -83 -10 -3 -26 -3 -35 1 -14 5 -16 17 -11 83 8 93 10 101
30 101 9 0 17 -6 19 -12z m1791 2 c-27 -12 -43 -12 -25 0 8 5 22 9 30 9 10 0
8 -3 -5 -9z m2235 -80 c0 -89 0 -90 -25 -90 -25 0 -25 1 -25 90 0 89 0 90 25
90 25 0 25 -1 25 -90z m245 0 c0 -81 -1 -85 -22 -88 -22 -3 -23 -1 -23 88 0
89 1 91 23 88 21 -3 22 -7 22 -88z m-9300 57 c4 -13 7 -52 8 -88 2 -66 3 -66
-44 -60 -10 1 -7 54 7 121 1 8 3 23 3 33 1 25 20 21 26 -6z m6832 -9 c-3 -8
-6 -5 -6 6 -1 11 2 17 5 13 3 -3 4 -12 1 -19z m-7070 -31 c1 -12 5 -40 8 -63
6 -34 4 -42 -10 -48 -10 -3 -26 -4 -35 -1 -19 6 -19 11 -5 90 10 57 38 71 42
22z m9104 -2 c1 -5 2 -17 3 -25 2 -8 3 -45 4 -82 l2 -68 30 0 c27 0 30 -3 30
-30 l0 -30 63 -1 c53 -1 133 -15 101 -18 -7 -1 -12 -19 -12 -40 -1 -29 4 -41
16 -44 9 -3 -38 -5 -106 -6 l-123 -1 3 28 c3 24 -1 27 -29 30 l-33 3 2 142 c1
78 3 144 4 147 5 10 44 6 45 -5z m-12932 -140 l2 -145 -30 0 c-26 0 -30 -4
-33 -32 l-3 -33 -80 2 c-44 0 -180 1 -301 2 l-221 1 4 24 c4 19 9 22 26 18 18
-5 19 -7 5 -10 -24 -5 -23 -22 1 -22 10 0 21 8 24 18 2 9 8 25 12 34 5 13 1
20 -16 26 -31 12 101 21 313 23 86 1 161 5 166 8 6 3 12 17 13 31 3 19 11 26
32 28 28 3 30 11 31 150 0 17 6 22 27 22 l26 0 2 -145z m11158 123 c-3 -8 -6
-5 -6 6 -1 11 2 17 5 13 3 -3 4 -12 1 -19z m163 12 c0 -5 -5 -10 -11 -10 -5 0
-7 5 -4 10 3 6 8 10 11 10 2 0 4 -4 4 -10z m-443 -32 c-3 -7 -5 -2 -5 12 0 14
2 19 5 13 2 -7 2 -19 0 -25z m480 -40 c-3 -7 -5 -2 -5 12 0 14 2 19 5 13 2 -7
2 -19 0 -25z m-9874 -70 c8 -5 6 -8 -5 -8 -15 0 -18 8 -16 53 l1 52 4 -45 c3
-24 10 -48 16 -52z m9887 40 c0 -4 -4 -8 -9 -8 -6 0 -12 4 -15 8 -3 5 1 9 9 9
8 0 15 -4 15 -9z m-4850 -23 c0 -10 -11 -15 -35 -15 -33 0 -35 -2 -35 -35 0
-19 -5 -35 -11 -35 -8 0 -10 14 -6 40 3 23 1 40 -5 40 -5 0 -7 4 -4 8 2 4 25
8 50 10 35 1 46 -2 46 -13z m-247 -2 c-7 -2 -21 -2 -30 0 -10 3 -4 5 12 5 17
0 24 -2 18 -5z m375 0 c-10 -2 -26 -2 -35 0 -10 3 -2 5 17 5 19 0 27 -2 18 -5z
m4328 -6 c4 -4 -2 -7 -14 -7 -12 0 -22 4 -22 9 0 10 26 9 36 -2z m-50 -12 c9
-8 12 -19 9 -25 -10 -16 -25 -12 -19 5 4 8 1 15 -5 15 -6 0 -11 5 -11 10 0 14
9 12 26 -5z m-8926 -57 c0 -5 -106 -8 -235 -8 -129 0 -235 3 -235 8 0 4 106 7
235 7 129 0 235 -3 235 -7z m4305 3 c8 -14 -37 -43 -49 -31 -6 6 -4 15 4 25
14 17 36 20 45 6z m309 -16 c27 -21 10 -38 -19 -19 -14 9 -22 20 -19 25 7 12
16 11 38 -6z m-254 -52 c-1 -14 -27 -43 -39 -43 -15 0 -14 10 6 32 16 18 33
24 33 11z m-3080 -53 c0 -27 -3 -30 -30 -30 -27 0 -30 3 -30 30 0 27 3 30 30
30 27 0 30 -3 30 -30z m3170 5 c0 -14 -4 -25 -10 -25 -11 0 -14 33 -3 43 11
11 13 8 13 -18z m3210 -5 c0 -27 -3 -30 -30 -30 -27 0 -30 3 -30 30 0 27 3 30
30 30 27 0 30 -3 30 -30z m-10342 -62 c3 -28 3 -28 -57 -28 -57 0 -61 1 -61
23 0 33 5 36 63 34 49 -2 52 -4 55 -29z m742 2 c0 -27 -3 -30 -30 -30 -25 0
-30 4 -30 23 0 30 7 37 37 37 19 0 23 -5 23 -30z m3575 0 c0 -20 -6 -26 -28
-28 -18 -2 -29 2 -33 12 -11 28 4 48 33 44 22 -2 28 -8 28 -28z m5670 0 c0
-20 -6 -26 -28 -28 -29 -4 -44 16 -33 44 4 10 15 14 33 12 22 -2 28 -8 28 -28z
m-5905 -59 c0 -21 -6 -32 -20 -36 -27 -8 -40 1 -40 29 0 29 7 36 37 36 19 0
23 -5 23 -29z m6138 0 c5 -30 -10 -45 -37 -36 -15 5 -21 15 -21 36 0 27 3 30
28 27 20 -2 28 -9 30 -27z m3952 9 c39 -5 46 -8 25 -10 l-30 -3 35 -7 c33 -7
33 -7 -15 -9 -36 -1 -46 -4 -35 -11 13 -8 13 -10 -2 -10 -9 0 -20 5 -24 11 -4
6 -29 9 -63 7 -52 -3 -56 -1 -59 20 -3 21 0 22 55 21 32 -1 83 -4 113 -9z
m-214 -65 c-8 -8 -17 -15 -20 -15 -3 0 -3 7 0 15 4 8 13 15 21 15 12 0 12 -2
-1 -15z m-7398 -282 l-3 -78 -122 -3 -123 -3 0 -324 0 -325 -160 0 -161 0 3
325 3 325 -122 0 -123 0 0 80 0 80 405 0 406 0 -3 -77z m410 -90 l2 -163 125
0 125 0 2 163 3 162 158 3 157 3 0 -406 0 -405 -160 0 -160 0 0 160 0 160
-125 0 -124 0 -3 -157 -3 -158 -162 -3 -163 -2 0 398 c0 219 3 402 7 406 4 3
77 5 162 4 l156 -3 3 -162z m1547 87 l0 -75 -285 -3 -285 -2 3 -85 3 -85 120
0 119 0 0 -75 c0 -41 -3 -75 -7 -76 -16 -1 -169 -8 -200 -9 l-33 0 0 -85 0
-85 285 0 285 0 0 -75 0 -75 -404 0 -405 0 -3 38 c-3 36 -4 37 -45 40 l-43 3
0 320 c0 248 3 319 13 320 6 1 26 2 42 3 28 1 30 4 33 44 l3 42 402 -2 402 -3
0 -75z m-6534 -20 c1 -5 1 -21 1 -35 0 -86 0 -85 -37 -85 -30 0 -35 3 -35 24
0 21 -6 25 -32 28 -30 3 -33 6 -36 41 l-3 37 70 0 c40 0 71 -4 72 -10z m10417
-27 c-3 -35 -6 -38 -35 -41 -27 -3 -33 -7 -33 -28 0 -21 -5 -24 -34 -24 l-34
0 -4 58 c-2 31 -3 60 -1 65 3 4 36 7 74 7 l70 0 -3 -37z m-9858 -3 c0 -30 0
-30 59 -30 58 0 60 -1 63 -27 2 -22 9 -29 33 -33 24 -4 30 -10 30 -30 0 -20 7
-26 30 -30 23 -4 31 -11 33 -32 3 -23 -1 -27 -25 -30 -27 -3 -28 -6 -33 -63
-5 -59 -5 -60 -37 -63 -29 -3 -33 -7 -33 -32 0 -25 -4 -29 -32 -32 -25 -2 -34
-8 -36 -25 -3 -20 -9 -23 -53 -23 l-49 0 0 49 c0 46 2 49 29 54 23 5 30 12 33
34 2 23 7 27 26 25 21 -3 22 0 22 67 l0 71 -30 0 -30 0 0 60 0 60 -30 0 c-27
0 -30 3 -30 30 0 27 3 30 30 30 27 0 30 -3 30 -30z m9218 3 c-2 -22 -9 -29
-30 -31 -27 -3 -28 -5 -28 -63 0 -59 0 -59 -30 -59 l-30 0 0 -71 c0 -67 1 -70
23 -67 18 2 23 -2 25 -25 3 -22 10 -29 33 -34 27 -5 29 -8 29 -54 l0 -49 -55
0 c-39 0 -55 4 -54 13 4 29 -3 37 -31 37 -27 0 -30 3 -30 29 0 26 -4 30 -32
33 -33 3 -33 4 -38 63 -5 57 -7 60 -32 63 -24 3 -28 8 -28 33 0 29 0 29 -60
29 l-60 0 0 60 0 60 30 0 c27 0 30 -3 30 -30 0 -27 3 -30 30 -30 27 0 30 -3
30 -30 0 -27 3 -30 29 -30 25 0 30 4 33 27 2 22 9 29 33 33 24 4 31 11 33 33
3 26 5 27 63 27 59 0 59 0 59 30 0 27 3 30 31 30 27 0 30 -3 27 -27z m-10027
-27 c2 -3 2 -33 -1 -68 -5 -62 -5 -63 -35 -63 -30 0 -30 1 -33 58 -2 36 -7 57
-15 57 -7 0 -6 4 3 10 15 10 73 14 81 6z m422 -5 c4 -1 7 -28 7 -61 l0 -60
-36 0 -37 0 7 46 c3 26 6 54 6 64 0 11 7 16 23 14 12 -1 25 -3 30 -3z m9977
-1 c9 0 24 -106 16 -118 -3 -5 -19 -7 -36 -4 -29 4 -30 5 -30 61 0 61 6 75 28
66 7 -3 17 -5 22 -5z m451 -55 c-3 -71 -5 -75 -37 -75 -29 0 -31 6 -37 83 l-4
58 41 -3 40 -3 -3 -60z m-11158 48 c-7 -2 -19 -2 -25 0 -7 3 -2 5 12 5 14 0
19 -2 13 -5z m1487 -53 l0 -60 -60 0 -60 0 0 30 c0 27 3 30 30 30 27 0 30 3
30 30 0 27 3 30 30 30 l30 0 0 -60z m9893 53 c-13 -2 -33 -2 -45 0 -13 2 -3 4
22 4 25 0 35 -2 23 -4z m284 1 c-3 -3 -12 -4 -19 -1 -8 3 -5 6 6 6 11 1 17 -2
13 -5z m-11977 -90 c0 -29 -3 -35 -16 -30 -9 3 -24 6 -35 6 -14 0 -19 7 -19
30 0 28 3 30 35 30 34 0 35 -2 35 -36z m740 0 c0 -34 -1 -35 -32 -32 -54 5
-53 68 2 68 28 0 30 -3 30 -36z m380 6 c0 -30 0 -30 59 -30 l60 0 3 -32 c2
-21 9 -34 18 -34 8 -1 23 -2 33 -3 16 -1 17 -13 15 -153 l-3 -153 -32 -3 c-30
-3 -33 -6 -33 -39 0 -33 2 -35 30 -31 26 4 29 2 32 -26 2 -25 8 -32 31 -34 19
-2 27 -9 27 -23 0 -16 -7 -19 -56 -19 -48 0 -55 2 -50 16 12 30 -2 52 -29 46
-23 -4 -25 -1 -27 39 0 24 -1 58 0 74 2 58 -6 75 -38 75 l-29 0 -3 88 c-3 86
-3 87 -29 90 -30 3 -39 33 -39 130 0 51 0 52 30 52 27 0 30 -3 30 -30z m1050
0 c0 -30 0 -30 -59 -30 -58 0 -60 -1 -63 -27 -2 -22 -9 -29 -33 -33 -24 -4
-31 -11 -35 -35 -5 -29 -7 -30 -60 -31 -54 -1 -55 -1 -58 -32 -3 -28 -7 -32
-33 -32 -26 0 -29 -3 -29 -30 0 -28 -3 -30 -35 -30 l-35 0 0 -55 c0 -52 -1
-55 -25 -55 -18 0 -23 4 -19 15 8 19 -13 45 -36 45 -12 0 -20 11 -24 31 -12
62 -8 77 22 81 21 2 28 9 30 31 3 26 5 27 63 27 59 0 59 0 59 29 0 25 4 30 27
33 22 2 29 9 33 33 5 29 8 30 65 35 57 5 60 7 63 33 l3 27 90 0 89 0 0 -30z
m7862 3 c3 -26 6 -28 63 -33 57 -5 60 -6 65 -35 3 -16 11 -31 18 -31 6 -1 19
-2 27 -3 10 -1 15 -12 15 -31 0 -30 0 -30 59 -30 58 0 60 -1 63 -27 2 -22 9
-29 31 -31 29 -4 32 -15 21 -84 -5 -26 -10 -35 -20 -31 -21 8 -43 -15 -37 -37
4 -16 0 -20 -20 -20 -24 0 -26 4 -29 53 -3 51 -4 52 -35 55 -29 3 -33 7 -33
32 0 24 -5 29 -27 32 -22 2 -29 9 -31 30 -4 32 -24 40 -81 33 -28 -3 -41 -1
-42 8 -1 6 -2 21 -3 32 -1 15 -9 21 -33 23 -29 3 -33 7 -33 33 0 29 0 29 -60
29 l-60 0 0 30 0 30 89 0 90 0 3 -27z m928 -25 c0 -29 -3 -70 -7 -91 -5 -31
-9 -38 -24 -34 -32 8 -42 -19 -40 -105 l2 -80 -30 4 c-28 4 -31 2 -32 -21 0
-14 -1 -57 -2 -96 -2 -68 -3 -70 -27 -70 -21 0 -26 -6 -28 -33 -3 -32 -4 -32
-58 -32 -47 0 -54 3 -54 19 0 14 8 21 28 23 21 2 28 9 30 30 3 21 9 27 30 30
22 2 28 9 30 35 3 29 1 32 -30 35 l-33 3 -3 153 c-2 118 0 152 10 153 7 1 22
2 33 3 15 1 21 9 23 34 l3 32 60 0 c59 0 59 0 59 30 0 27 3 30 30 30 30 0 30
-1 30 -52z m385 17 c0 -27 -4 -30 -32 -33 -32 -3 -33 -2 -33 33 0 35 1 36 33
33 28 -3 32 -6 32 -33z m745 5 c0 -23 -5 -30 -19 -30 -11 0 -26 -3 -35 -6 -13
-5 -16 1 -16 30 0 34 1 36 35 36 32 0 35 -2 35 -30z m-8782 -27 c-2 -23 -8
-28 -30 -29 -24 -1 -28 3 -28 27 0 26 4 29 31 29 27 0 30 -3 27 -27z m5462 2
c0 -14 5 -26 10 -26 6 -1 15 -3 20 -4 6 -1 15 -3 20 -4 6 0 10 -26 10 -56 0
-54 0 -55 -30 -55 l-30 0 0 60 0 60 -30 0 c-22 0 -30 5 -30 18 0 25 9 32 37
32 18 0 23 -5 23 -25z m-8955 -40 c0 -25 -4 -30 -27 -33 -26 -3 -28 -1 -28 33
0 34 2 36 28 33 23 -3 27 -8 27 -33z m1553 3 c3 -25 0 -28 -27 -28 -28 0 -31
3 -31 31 0 27 3 30 28 27 21 -2 28 -9 30 -30z m9342 2 c0 -27 -3 -30 -30 -30
-25 0 -30 4 -30 23 0 30 7 37 37 37 19 0 23 -5 23 -30z m1550 -5 c0 -32 -2
-35 -30 -35 -26 0 -30 4 -30 28 0 35 6 42 37 42 20 0 23 -5 23 -35z m-9012
-48 l3 -57 -31 0 c-30 0 -30 1 -30 53 0 60 4 68 34 63 18 -2 21 -11 24 -59z
m-2870 -39 l3 -58 49 0 c43 0 50 3 50 19 0 14 -8 21 -27 23 -24 3 -28 8 -31
41 l-3 37 40 0 c39 0 41 -2 41 -30 l0 -30 114 0 115 0 3 28 c3 23 8 27 41 30
35 3 37 2 37 -27 0 -28 3 -31 30 -31 l30 0 0 -64 c0 -62 0 -63 25 -58 18 3 25
11 25 28 0 21 5 24 34 24 30 0 35 -4 39 -27 2 -16 5 -2 6 30 1 56 1 57 31 57
30 0 30 -1 30 -52 0 -29 -3 -70 -6 -90 -6 -34 -10 -38 -35 -38 -26 0 -29 -3
-29 -35 0 -32 2 -35 29 -35 26 0 30 -4 33 -32 2 -28 8 -34 31 -36 19 -2 27 -9
27 -23 0 -16 -7 -19 -45 -19 -42 0 -45 2 -46 28 -1 25 -2 25 -11 -8 -5 -19
-12 -47 -15 -62 -4 -23 -11 -28 -33 -28 -24 0 -29 5 -32 28 l-3 27 -93 3 -93
3 3 32 c2 27 7 32 28 32 23 0 25 4 30 60 5 57 7 60 33 63 23 3 27 8 27 33 0
26 -3 29 -30 29 -27 0 -30 3 -30 30 l0 30 -90 0 -90 0 0 -30 0 -30 60 0 60 0
0 -30 0 -30 -60 0 c-60 0 -60 0 -60 -30 0 -36 -17 -42 -115 -38 l-70 3 -3 33
-3 32 -65 0 -65 0 3 33 c2 27 8 33 31 35 19 2 27 9 27 22 0 13 -8 20 -27 22
-26 3 -28 6 -31 57 -4 73 1 83 40 79 33 -3 33 -4 36 -60z m2434 35 l3 -28 112
-3 112 -3 3 -27 c2 -21 9 -28 31 -30 21 -3 27 -8 26 -25 -1 -12 -1 -50 -1 -84
2 -59 3 -63 26 -63 25 0 35 -28 28 -77 -5 -33 -42 -31 -42 2 l0 25 -145 0
-145 0 0 30 0 30 -199 0 -200 0 -3 28 c-3 26 -6 27 -60 30 -43 2 -58 7 -58 17
0 9 -10 15 -25 15 -24 0 -25 2 -25 65 l0 65 55 0 c54 0 55 0 55 30 l0 30 224
0 225 0 3 -27z m6848 -3 c0 -30 1 -30 55 -30 l55 0 0 -65 c0 -63 -1 -65 -25
-65 -15 0 -25 -6 -25 -15 0 -10 -15 -15 -57 -17 -55 -3 -58 -4 -61 -30 l-3
-28 -199 0 -199 0 -3 -27 -3 -28 -140 -3 c-139 -3 -162 -9 -150 -39 2 -8 -4
-13 -15 -13 -17 0 -20 7 -20 50 0 47 2 50 25 50 24 0 25 2 26 68 1 37 1 75 0
84 -1 11 7 18 26 20 22 2 29 9 31 30 l3 27 112 3 112 3 3 28 3 27 225 0 224 0
0 -30z m1628 -2 l3 -28 115 0 114 0 0 30 c0 28 2 30 41 30 l40 0 -3 -37 c-2
-32 -7 -39 -28 -42 -24 -3 -39 -16 -40 -33 0 -5 25 -8 55 -8 l54 0 3 58 3 57
38 3 38 3 -3 -68 c-3 -66 -4 -68 -30 -71 -20 -2 -28 -9 -28 -22 0 -13 8 -20
28 -22 22 -2 28 -8 30 -35 l3 -33 -65 0 -65 0 -3 -32 -3 -33 -90 0 -90 0 -3
33 -3 32 -60 0 c-59 0 -59 0 -59 30 l0 30 60 0 60 0 0 30 0 30 -90 0 -90 0 0
-30 c0 -27 -3 -30 -30 -30 -27 0 -30 -3 -30 -29 0 -25 4 -30 28 -33 25 -3 27
-6 30 -60 3 -54 4 -57 32 -63 25 -5 30 -12 30 -35 l0 -29 -92 -3 -93 -3 -3
-27 c-3 -24 -8 -28 -33 -28 -22 0 -29 5 -29 19 0 43 -10 51 -66 51 -47 0 -54
3 -54 19 0 14 8 21 28 23 22 2 28 8 30 36 3 28 7 32 33 32 27 0 29 3 29 35 0
32 -3 35 -29 35 -26 0 -29 3 -35 46 -3 26 -6 66 -6 90 0 42 1 44 30 44 30 0
30 -1 31 -57 1 -32 4 -46 6 -30 4 23 9 27 38 27 29 0 34 -4 37 -27 2 -19 9
-27 26 -28 24 -2 24 -2 22 73 -1 52 -1 52 29 52 28 0 31 3 31 31 0 29 2 30 38
27 32 -3 37 -7 40 -30z m-11926 -100 l3 -123 28 -3 c26 -3 27 -5 27 -63 0 -59
0 -59 29 -59 25 0 30 -4 33 -27 2 -22 9 -29 31 -31 23 -3 27 -8 27 -33 l0 -30
-57 3 c-56 3 -58 4 -63 33 -4 24 -11 31 -32 33 -21 3 -27 9 -30 30 -2 21 -9
28 -30 30 -24 3 -28 8 -28 33 0 26 -3 29 -30 29 l-30 0 0 120 0 120 30 0 c27
0 30 3 30 30 0 27 3 30 30 30 l29 0 3 -122z m308 92 c0 -27 3 -30 30 -30 27 0
30 -3 30 -30 l0 -30 60 0 60 0 0 -60 0 -60 -30 0 c-27 0 -30 -3 -30 -30 0 -27
-3 -30 -30 -30 -27 0 -30 3 -30 30 0 27 -3 30 -30 30 -27 0 -30 3 -30 30 0 27
-3 30 -29 30 -25 0 -30 -4 -33 -27 -2 -22 -9 -29 -33 -33 -24 -4 -31 -11 -33
-33 -3 -23 -8 -27 -33 -27 -26 0 -29 3 -29 30 0 27 -3 30 -30 30 l-31 0 3 58
3 57 60 5 c57 5 60 7 63 33 3 23 8 27 33 27 26 0 29 3 29 30 0 27 3 30 30 30
27 0 30 -3 30 -30z m308 -117 l-3 -148 -30 -5 c-24 -4 -31 -11 -33 -33 -3 -21
-9 -27 -28 -27 -22 0 -24 3 -24 54 0 51 1 54 30 60 l30 6 0 120 0 120 30 0 31
0 -3 -147z m1442 121 c0 -17 -5 -24 -20 -24 -14 0 -20 7 -20 23 0 16 6 23 20
24 15 1 20 -4 20 -23z m9220 0 c0 -17 -5 -24 -20 -24 -14 0 -20 7 -20 23 0 16
6 23 20 24 15 1 20 -4 20 -23z m1460 -94 l0 -120 30 -6 c29 -6 30 -9 30 -60 0
-51 -2 -54 -24 -54 -19 0 -25 6 -28 28 -2 22 -8 28 -35 30 l-33 3 0 150 0 149
30 0 30 0 0 -120z m310 90 c0 -27 3 -30 30 -30 27 0 30 -3 30 -30 0 -29 1 -29
62 -32 l61 -3 1 -55 c0 -53 -1 -55 -29 -60 -24 -4 -31 -11 -33 -33 -3 -21 -9
-27 -28 -27 -20 0 -24 5 -24 30 0 27 -3 30 -29 30 -25 0 -30 4 -33 28 -2 22
-8 28 -35 30 -31 3 -33 1 -33 -27 0 -28 -3 -31 -30 -31 -27 0 -30 -3 -30 -30
0 -27 -3 -30 -30 -30 -27 0 -30 3 -30 30 0 27 -3 30 -30 30 l-30 0 0 60 0 60
60 0 60 0 0 30 c0 27 3 30 30 30 27 0 30 3 30 30 0 27 3 30 30 30 27 0 30 -3
30 -30z m305 0 c0 -20 7 -26 30 -30 l30 -5 3 -118 3 -117 -31 0 c-27 0 -30 -3
-30 -29 0 -26 -4 -30 -32 -33 -28 -2 -34 -8 -36 -30 -3 -22 -9 -28 -27 -28
-23 0 -35 -17 -35 -51 0 -17 -6 -19 -52 -17 -50 3 -53 5 -56 31 -3 24 0 27 27
27 28 0 31 3 31 30 0 27 3 30 30 30 30 0 30 0 30 59 l0 60 33 3 32 3 3 123 c3
121 3 123 25 120 16 -2 22 -10 22 -28z m-12489 -35 c9 -23 -5 -65 -21 -65 -8
0 -15 -9 -15 -20 0 -24 -34 -43 -60 -35 -15 5 -20 15 -20 41 0 31 2 34 30 34
27 0 30 3 30 30 0 25 4 30 25 30 14 0 28 -7 31 -15z m11624 -14 c0 -25 4 -30
28 -33 22 -2 28 -8 30 -36 2 -22 -2 -34 -13 -38 -25 -10 -65 13 -65 36 0 11
-7 20 -15 20 -16 0 -30 42 -21 65 3 8 17 15 31 15 21 0 25 -5 25 -29z m-9680
-71 c0 -27 -3 -30 -30 -30 -27 0 -30 -3 -30 -30 l0 -30 -92 1 c-108 1 -142 8
-146 32 -3 12 3 17 21 17 27 0 44 16 42 40 -1 20 34 27 143 29 l92 1 0 -30z
m7883 24 c27 -5 37 -11 35 -23 -4 -25 11 -41 38 -41 19 0 25 -5 22 -17 -4 -24
-38 -31 -145 -32 l-93 -1 0 30 c0 27 -3 30 -30 30 -27 0 -30 3 -30 30 l0 30
83 0 c45 0 99 -3 120 -6z m-11135 -86 c-2 -15 -10 -23 -23 -23 -13 0 -21 8
-23 23 -3 18 1 22 23 22 22 0 26 -4 23 -22z m4622 -3 c0 -21 -5 -25 -30 -25
-25 0 -30 4 -30 25 0 21 5 25 30 25 25 0 30 -4 30 -25z m5000 0 c0 -21 -5 -25
-30 -25 -25 0 -30 4 -30 25 0 21 5 25 30 25 25 0 30 -4 30 -25z m4597 -11 c-3
-3 -12 -4 -19 -1 -8 3 -5 6 6 6 11 1 17 -2 13 -5z m-13469 -51 c3 -29 7 -33
33 -33 30 0 30 0 27 -52 -3 -50 -5 -53 -31 -56 -22 -3 -29 -10 -34 -33 -4 -23
-10 -29 -27 -27 -11 2 -21 10 -21 18 -1 26 -15 40 -41 40 -22 0 -24 3 -24 54
0 52 1 55 27 58 19 2 29 10 31 23 6 39 12 46 34 43 18 -2 24 -11 26 -35z m549
24 c20 -12 3 -47 -23 -47 -18 0 -24 5 -24 23 0 35 16 43 47 24z m2026 -7 c5
-18 13 -20 86 -20 l81 0 0 -49 0 -48 -112 -6 c-90 -5 -116 -3 -129 9 -8 8 -25
14 -37 14 -20 0 -22 5 -22 53 0 30 2 56 5 58 2 3 31 6 63 7 52 2 60 0 65 -18z
m7665 -42 c3 -54 2 -58 -19 -58 -12 0 -30 -6 -38 -14 -13 -12 -38 -14 -127 -9
l-111 6 -2 48 -1 49 81 0 c73 0 81 2 86 20 5 19 12 21 67 18 l61 -3 3 -57z
m2502 27 c4 -24 11 -31 33 -33 26 -3 27 -6 27 -58 0 -50 -2 -54 -23 -54 -28 0
-47 -17 -47 -42 0 -31 -38 -22 -42 10 -2 22 -8 28 -35 30 -33 3 -33 4 -33 57
0 51 1 54 27 57 19 2 29 10 31 23 6 39 12 46 34 43 17 -2 24 -11 28 -33z
m-13360 -5 l0 -30 89 0 90 0 3 -27 c2 -22 9 -29 33 -33 17 -3 31 -11 31 -18 1
-6 2 -19 3 -27 1 -10 12 -15 32 -15 27 0 30 -3 27 -27 l-3 -28 -85 0 -85 0 -5
30 c-5 29 -7 30 -68 33 -61 3 -62 3 -62 32 0 27 -3 30 -30 30 -27 0 -30 3 -30
29 0 25 -4 30 -27 33 -20 2 -29 9 -31 26 -3 21 0 22 57 22 l61 0 0 -30z m2060
11 c0 -10 -9 -21 -20 -24 -16 -4 -20 0 -20 19 0 17 6 24 20 24 13 0 20 -7 20
-19z m9840 -1 c0 -13 -7 -20 -20 -20 -13 0 -20 7 -20 20 0 13 7 20 20 20 13 0
20 -7 20 -20z m900 -6 c0 -22 -4 -25 -27 -22 -43 5 -40 48 3 48 19 0 24 -5 24
-26z m1204 9 c-5 -15 -3 -15 10 1 16 19 16 19 16 -2 0 -20 -4 -22 -40 -16 -35
6 -40 4 -39 -12 0 -11 3 -14 6 -6 10 25 19 11 15 -23 -4 -31 -8 -35 -33 -35
-26 0 -29 -4 -29 -30 l0 -30 -60 0 -60 0 0 -30 0 -30 -85 0 c-84 0 -85 0 -85
25 0 21 5 25 30 25 27 0 30 3 30 30 0 27 3 30 30 30 27 0 30 3 30 30 l0 30 95
0 95 0 0 30 c0 28 2 30 40 30 33 0 38 -3 34 -17z m-12298 -30 c-11 -11 -19 6
-11 24 8 17 8 17 12 0 3 -10 2 -21 -1 -24z m10524 11 c0 -8 -4 -14 -10 -14 -5
0 -10 9 -10 21 0 11 5 17 10 14 6 -3 10 -13 10 -21z m-9232 -51 c3 -29 7 -33
33 -33 29 0 29 0 29 -60 l0 -60 30 0 c27 0 30 -3 30 -30 0 -27 -3 -30 -30 -30
-27 0 -30 3 -30 30 0 30 0 30 -59 30 l-60 0 -3 33 c-2 24 -8 33 -25 35 -17 3
-23 10 -23 28 0 19 -6 26 -30 31 -16 3 -30 9 -30 13 0 5 -3 15 -6 24 -5 12 6
16 58 19 111 6 113 6 116 -30z m8095 17 c12 -11 -3 -40 -22 -40 -23 0 -41 -19
-41 -43 0 -14 -5 -17 -17 -13 -20 8 -33 -10 -33 -46 0 -27 -1 -28 -60 -28
l-60 0 0 -30 c0 -27 -3 -30 -30 -30 -27 0 -30 3 -30 30 0 27 3 30 30 30 l30 0
0 60 0 60 30 0 c26 0 30 4 30 28 0 16 3 32 6 35 9 8 156 -3 167 -13z m-9983
-14 c0 -19 -6 -25 -27 -28 -22 -2 -29 -9 -33 -33 -5 -29 -7 -30 -60 -30 -53 0
-55 -1 -60 -30 -5 -29 -7 -30 -60 -30 -53 0 -55 1 -58 28 -3 24 0 27 27 27 28
0 31 3 31 30 0 27 3 30 30 30 27 0 30 3 30 30 l0 30 90 0 c89 0 90 0 90 -24z
m11880 -6 c0 -27 3 -30 30 -30 27 0 30 -3 30 -30 0 -27 3 -30 31 -30 27 0 30
-3 27 -27 -3 -27 -5 -28 -58 -28 -53 0 -55 1 -60 30 -5 29 -7 30 -60 30 -53 0
-55 1 -60 30 -4 24 -11 31 -33 33 -21 3 -27 9 -27 28 0 24 1 24 90 24 l90 0 0
-30z m-9282 -19 c3 -17 -2 -21 -25 -21 -288 -2 -263 -4 -263 19 0 25 9 26 160
25 120 -1 125 -2 128 -23z m6785 19 c4 0 7 -9 7 -20 0 -19 -7 -20 -145 -20
-134 0 -145 1 -145 18 0 10 2 21 4 23 3 3 226 3 279 -1z m-9693 -53 c0 -30 -6
-36 -31 -30 -12 3 -19 14 -19 29 0 19 5 24 25 24 20 0 25 -5 25 -23z m12370
-2 c0 -20 -5 -25 -25 -25 -20 0 -25 5 -25 25 0 20 5 25 25 25 20 0 25 -5 25
-25z m-10370 -5 c0 -16 -7 -20 -31 -20 -30 0 -31 -2 -25 -30 5 -27 3 -30 -19
-30 -23 0 -25 3 -25 50 l0 50 50 0 c43 0 50 -3 50 -20z m8420 -30 c0 -46 -2
-50 -24 -50 -20 0 -23 4 -20 30 3 27 1 30 -26 30 -23 0 -30 4 -30 20 0 17 7
20 50 20 l50 0 0 -50z m-7228 2 c8 -31 11 -33 39 -27 16 4 51 4 77 0 47 -6 48
-7 58 -51 l10 -44 -30 -1 c-81 -4 -81 -4 -81 21 0 24 -2 25 -87 28 -86 3 -87
3 -90 30 -3 27 -4 27 -90 30 -77 2 -88 5 -88 21 0 10 3 21 7 24 4 4 65 6 137
5 l130 -3 8 -33z m6216 11 c3 -21 0 -22 -85 -25 -87 -3 -88 -3 -91 -30 -3 -27
-4 -27 -90 -30 -84 -3 -87 -4 -87 -27 0 -24 -2 -24 -75 -22 -41 1 -79 7 -85
12 -7 7 -2 8 16 4 21 -5 27 -2 37 20 7 14 12 32 12 40 0 11 19 15 83 17 l82 3
3 32 3 31 137 -1 c133 -2 137 -3 140 -24z m-5190 -30 c0 -16 -5 -34 -10 -40
-12 -15 -94 -17 -103 -3 -4 6 5 10 19 10 22 0 26 4 26 30 0 27 3 30 34 30 30
0 34 -3 34 -27z m3952 -3 c0 -25 4 -30 25 -30 14 0 25 -4 25 -8 0 -11 -126 -9
-137 2 -4 4 -8 21 -9 37 -2 28 0 29 47 29 48 0 49 -1 49 -30z m-8230 -10 c0
-25 -4 -30 -25 -30 -14 0 -28 7 -31 15 -10 25 4 45 31 45 21 0 25 -5 25 -30z
m2132 3 c2 -22 9 -29 33 -33 l30 -5 3 -87 c3 -81 1 -87 -19 -93 -25 -8 -36 1
-41 35 -2 19 -10 26 -30 28 -19 2 -28 9 -28 22 0 26 -27 74 -35 61 -10 -18
-25 -13 -25 8 0 24 16 36 26 20 10 -16 24 9 24 44 0 23 4 27 29 27 25 0 30 -4
33 -27z m8240 -5 c2 -27 7 -33 26 -32 17 0 22 -5 22 -23 0 -14 -6 -23 -15 -23
-8 0 -14 3 -14 8 1 4 1 12 0 17 -3 15 -31 -55 -31 -76 0 -14 -7 -19 -25 -19
-24 0 -27 -4 -29 -39 -1 -20 -55 -34 -62 -17 -3 7 -4 48 -2 92 l3 79 30 5 c21
4 30 11 31 25 1 11 2 23 3 28 1 4 14 7 30 7 26 0 30 -4 33 -32z m2123 2 c0
-20 -6 -26 -27 -28 -25 -3 -28 0 -28 28 0 28 3 31 28 28 21 -2 27 -8 27 -28z
m-9755 -14 c0 -19 -6 -25 -27 -28 -27 -3 -28 -6 -31 -60 -3 -54 -5 -58 -27
-58 -18 0 -25 -5 -25 -20 0 -18 -7 -20 -77 -20 -43 0 -95 -3 -115 -6 l-38 -7
0 57 c0 53 1 56 25 56 14 0 26 6 26 13 1 6 3 28 4 47 1 19 3 38 4 43 0 4 64 7
141 7 l140 0 0 -24z m7245 -31 c0 -47 1 -50 28 -53 27 -3 28 -5 25 -55 -3 -47
-5 -52 -25 -51 -13 0 -63 1 -113 2 -83 2 -90 4 -90 22 0 15 -7 20 -25 20 -22
0 -24 4 -27 58 -3 54 -4 57 -30 60 -22 3 -28 9 -28 28 l0 25 143 -3 142 -3 0
-50z m-6237 3 c3 -21 9 -27 30 -30 21 -2 28 -9 30 -30 3 -22 9 -28 28 -28 20
0 24 5 24 30 0 27 3 30 29 30 25 0 30 4 33 28 3 24 7 27 43 29 70 3 75 -2 75
-63 0 -51 1 -54 26 -54 23 0 25 -3 22 -37 l-3 -38 -52 -3 -52 -3 -3 38 c-3 33
-7 38 -30 41 -24 3 -27 0 -30 -35 l-3 -38 -85 0 -85 0 -3 38 c-3 31 -7 37 -27
37 -20 0 -24 -6 -27 -37 l-3 -38 -82 -3 c-53 -2 -83 1 -83 8 0 5 11 10 25 10
22 0 25 4 25 38 1 37 27 82 49 82 6 0 11 11 11 23 0 32 2 33 62 33 50 -1 53
-3 56 -28z m4770 0 c3 -21 9 -27 30 -30 21 -2 28 -9 30 -31 3 -24 7 -28 30
-25 21 2 27 8 27 28 0 20 6 26 28 28 21 3 27 9 27 28 0 13 3 24 8 25 37 5 89
5 100 2 6 -3 12 -16 12 -29 0 -13 5 -24 11 -24 22 0 48 -45 49 -82 0 -34 3
-38 27 -38 19 0 24 -3 17 -10 -6 -6 -43 -10 -85 -8 l-74 3 -3 38 c-3 31 -7 37
-27 37 -20 0 -24 -6 -27 -37 l-3 -38 -85 0 -85 0 -3 38 c-3 35 -6 38 -30 35
-21 -2 -27 -9 -29 -28 0 -14 -1 -31 -2 -38 -1 -9 -16 -12 -53 -10 l-53 3 -3
38 c-3 34 -1 37 22 37 25 0 26 3 26 54 0 61 5 65 75 63 36 -2 40 -5 43 -29z
m-8700 -15 c-2 -22 -9 -29 -30 -31 -25 -3 -28 0 -28 27 0 28 3 31 31 31 27 0
30 -3 27 -27z m122 -3 c0 -27 3 -30 30 -30 30 0 30 0 30 -59 0 -55 -2 -59 -25
-63 -13 -3 -27 -3 -30 0 -3 3 -5 31 -5 63 0 55 -1 58 -27 61 -22 2 -29 9 -31
31 -3 24 0 27 27 27 28 0 31 -3 31 -30z m455 -55 c0 -44 -2 -98 -5 -120 -4
-35 -8 -40 -30 -40 -22 0 -25 5 -28 40 -2 22 -10 46 -19 53 -10 7 -12 12 -5
12 8 0 12 21 12 63 0 35 3 67 7 71 4 4 21 6 38 4 l30 -3 0 -80z m676 -5 c-1
-46 -4 -87 -6 -91 -3 -3 -15 -6 -27 -5 -22 1 -23 6 -26 80 -4 97 0 108 35 104
l26 -3 -2 -85z m321 -7 l3 -98 28 1 c26 1 27 0 27 -52 0 -50 -2 -54 -24 -54
-24 0 -36 -16 -36 -50 0 -13 -9 -20 -27 -22 -22 -2 -29 -9 -31 -30 -3 -24 -8
-28 -33 -28 l-29 0 0 90 c0 89 0 90 25 90 l25 0 0 125 0 125 35 0 34 0 3 -97z
m370 87 c2 -5 2 -48 0 -95 l-4 -86 -26 3 c-26 3 -27 5 -30 82 -2 44 -1 85 2
93 6 15 53 18 58 3z m8973 -85 l0 -90 -27 -2 c-36 -2 -42 19 -33 114 7 73 7
74 33 71 27 -3 27 -3 27 -93z m383 -32 l3 -123 24 0 c25 0 25 -1 25 -90 l0
-90 -30 0 c-27 0 -30 3 -30 31 0 28 -2 30 -32 27 -28 -2 -33 -7 -33 -28 0 -20
-6 -26 -30 -30 -23 -4 -31 -11 -33 -32 -3 -21 -9 -27 -30 -30 -22 -2 -28 -9
-30 -36 -3 -32 -2 -33 30 -30 28 2 34 7 36 31 3 21 9 27 28 27 20 0 24 -5 24
-30 0 -27 3 -30 30 -30 23 0 30 -4 30 -20 0 -18 7 -20 70 -20 48 0 70 4 70 12
0 9 3 9 11 1 12 -12 39 -7 39 7 0 5 -13 11 -28 15 -28 6 -28 7 -25 63 6 76 8
82 37 82 19 0 23 4 19 20 -3 11 -10 20 -17 19 -29 -4 -36 3 -36 36 0 32 -2 35
-30 35 -27 0 -30 3 -30 29 0 35 8 42 38 34 16 -4 22 -13 22 -34 0 -26 4 -29
30 -29 27 0 30 -3 30 -29 0 -26 4 -30 33 -33 27 -2 32 -7 32 -28 0 -20 6 -26
30 -30 24 -4 31 -11 33 -33 2 -17 -2 -27 -10 -28 -63 -3 -104 -6 -111 -8 -5 0
-7 -13 -5 -28 2 -22 9 -29 29 -31 17 -2 29 -11 32 -23 5 -18 17 -19 386 -19
370 0 381 1 381 19 0 14 -8 21 -27 23 -22 2 -29 9 -31 31 l-3 28 58 -3 c37 -2
58 -7 59 -15 1 -7 2 -20 3 -28 1 -10 12 -15 31 -15 23 0 30 -4 30 -20 0 -18 7
-20 65 -20 59 0 65 2 65 20 0 19 5 21 58 18 43 -2 57 -7 57 -18 0 -12 19 -16
98 -18 92 -3 97 -2 97 18 0 19 6 20 85 20 77 0 85 -2 85 -19 0 -21 14 -26 87
-30 47 -2 52 0 55 21 2 15 9 22 20 20 10 -1 31 4 48 13 28 14 30 14 31 -2 0
-10 2 -26 4 -36 3 -14 -1 -16 -16 -12 -12 4 -19 2 -19 -6 0 -7 -7 -4 -15 7
-11 13 -13 14 -9 3 5 -17 -20 -34 -37 -23 -5 3 -9 -2 -9 -10 0 -9 -4 -16 -10
-16 -5 0 -10 -7 -10 -15 0 -8 4 -15 9 -15 5 0 11 -8 14 -19 4 -16 44 -30 102
-36 6 0 15 -3 20 -7 6 -3 55 -5 110 -3 102 2 180 -15 172 -38 -7 -21 -65 -24
-482 -32 -304 -5 -415 -4 -415 4 0 6 -13 11 -30 11 -27 0 -30 3 -30 30 l0 30
-187 -2 -188 -3 -3 -27 c-3 -27 -5 -28 -62 -28 -37 0 -60 -4 -63 -12 -3 -10
-192 -13 -898 -13 l-894 0 -3 111 c-2 105 -1 112 18 117 13 3 18 10 14 21 -5
12 1 16 24 16 27 0 31 4 34 32 2 27 7 33 30 35 23 1 27 -2 30 -30 2 -26 8 -33
30 -35 16 -2 30 -11 33 -23 9 -28 65 -27 65 1 0 16 -7 20 -30 20 -23 0 -30 5
-30 19 0 35 -12 51 -36 51 -20 0 -24 5 -24 30 l0 30 304 0 305 0 3 28 c3 26 6
27 66 30 58 3 62 5 62 27 0 40 -9 52 -36 47 -23 -4 -24 -2 -24 51 0 55 1 56
28 54 l27 -2 3 98 3 98 32 -3 32 -3 3 -122z m310 35 c3 -79 1 -87 -18 -93 -34
-11 -40 3 -40 96 l0 90 28 -3 c27 -3 27 -3 30 -90z m690 20 c2 -56 6 -68 20
-69 16 -1 15 -2 0 -6 -17 -4 -24 -21 -30 -73 -2 -19 -9 -25 -28 -25 l-25 0 -3
123 -3 123 33 -3 33 -3 3 -67z m437 42 c0 -20 -6 -26 -27 -28 -27 -3 -28 -5
-28 -63 0 -59 0 -59 -30 -59 l-30 0 0 60 0 60 30 0 c27 0 30 3 30 31 0 27 3
30 28 27 21 -2 27 -8 27 -28z m125 0 c0 -25 -4 -30 -25 -30 -27 0 -41 20 -31
45 3 8 17 15 31 15 21 0 25 -5 25 -30z m-9167 -7 c-13 -2 -35 -2 -50 0 -16 2
-5 4 22 4 28 0 40 -2 28 -4z m5427 -12 c0 -4 -7 -8 -15 -8 -8 0 -15 6 -15 13
0 8 6 11 15 8 8 -4 15 -9 15 -13z m-5422 -8 c-10 -2 -28 -2 -40 0 -13 2 -5 4
17 4 22 1 32 -1 23 -4z m-3760 -65 l3 -58 -36 0 -35 0 0 53 c0 62 5 69 40 65
23 -3 25 -7 28 -60z m2250 0 c-3 -60 -4 -63 -28 -63 -24 0 -25 3 -28 63 l-3
62 31 0 31 0 -3 -62z m8480 0 c-3 -60 -4 -63 -28 -63 -24 0 -25 3 -28 63 l-3
62 31 0 31 0 -3 -62z m2260 -1 l3 -58 -33 3 c-32 3 -33 4 -33 53 0 63 1 67 33
63 25 -3 27 -7 30 -61z m-11178 33 c0 -15 -7 -20 -30 -21 -16 -1 -40 -2 -52
-2 -15 -1 -22 5 -23 21 -2 20 3 22 52 22 46 0 53 -3 53 -20z m1285 -35 c0 -47
-2 -50 -27 -53 -28 -3 -28 -3 -28 53 0 56 0 56 28 53 25 -3 27 -6 27 -53z
m230 0 c0 -47 -2 -50 -25 -50 -23 0 -25 4 -28 53 -3 53 -3 53 25 50 27 -3 28
-6 28 -53z m173 11 c5 -53 -2 -64 -32 -59 -23 5 -26 10 -26 47 0 49 6 58 35
54 15 -2 21 -12 23 -42z m5980 -49 c3 -82 1 -89 -18 -94 -11 -3 -20 -9 -20
-14 0 -5 -4 -9 -10 -9 -11 0 -14 193 -3 204 4 4 16 6 28 4 18 -3 20 -11 23
-91z m170 41 c-3 -49 -5 -53 -28 -53 -22 0 -25 5 -28 39 -4 52 3 66 33 66 25
0 26 -2 23 -52z m230 0 c-3 -49 -5 -53 -28 -53 -22 0 -25 5 -28 39 -4 52 3 66
33 66 25 0 26 -2 23 -52z m1342 33 c0 -28 -11 -32 -64 -25 -36 5 -46 11 -46
25 0 16 8 19 55 19 48 0 55 -3 55 -19z m-11475 -96 c0 -59 -1 -60 -30 -65 -24
-4 -31 -11 -33 -32 -3 -21 -9 -27 -30 -30 -21 -2 -28 -9 -30 -30 -3 -22 -9
-28 -28 -28 -24 0 -24 1 -24 89 l0 89 30 6 c26 5 30 10 30 36 l0 31 58 -3 57
-3 0 -60z m683 33 c3 -21 9 -27 30 -30 27 -3 27 -3 30 -95 l3 -93 -31 0 -30 0
0 59 c0 58 -1 60 -27 63 -27 3 -28 6 -31 66 l-3 63 28 -3 c22 -2 29 -9 31 -30z
m12120 -30 c-3 -60 -4 -63 -30 -66 -27 -3 -28 -5 -28 -63 0 -59 0 -59 -30 -59
l-30 0 0 95 0 95 30 0 c25 0 30 4 30 23 0 30 7 37 37 37 23 0 24 -2 21 -62z
m-8940 24 c3 -18 -1 -22 -22 -22 -19 0 -26 5 -26 18 0 39 43 43 48 4z m5750 0
c3 -16 -2 -22 -17 -22 -24 0 -35 15 -27 36 9 23 40 13 44 -14z m3932 -1 c0
-25 4 -30 27 -33 33 -4 37 -19 28 -104 -4 -44 -11 -64 -20 -64 -8 0 -15 12
-17 28 -2 22 -8 28 -35 30 -26 3 -32 8 -35 30 -2 21 -9 28 -30 30 -18 2 -28 9
-28 20 0 9 -3 34 -6 55 l-7 37 62 0 c61 0 61 0 61 -29z m-9810 -121 l0 -80
-291 0 c-261 0 -291 -2 -285 -16 3 -9 6 -47 6 -85 l0 -69 120 0 120 0 0 -75 0
-75 -120 0 c-89 0 -120 -3 -121 -12 0 -7 0 -73 0 -147 1 -74 -1 -143 -5 -153
-5 -16 -19 -18 -160 -18 l-154 0 2 363 3 362 35 0 c31 1 35 4 38 30 2 17 5 36
7 43 3 9 93 12 405 12 l400 0 0 -80z m898 38 c3 -37 4 -38 43 -38 l39 0 0
-325 0 -325 -39 0 c-39 0 -40 -1 -43 -37 l-3 -38 -362 -3 -362 -2 -3 37 c-3
36 -5 38 -40 41 l-38 3 0 320 c0 248 3 319 13 321 6 1 23 2 37 2 20 1 26 7 28
31 2 17 5 36 7 43 4 10 81 12 362 10 l358 -3 3 -37z m500 -290 l2 -328 125 0
125 0 2 328 3 327 158 3 157 3 0 -366 0 -365 -40 0 -40 0 0 -40 0 -40 -364 0
-365 0 -3 38 c-3 35 -5 37 -39 40 l-36 3 -7 153 c-4 85 -4 249 0 365 l7 211
156 -2 156 -3 3 -327z m980 290 c3 -35 5 -37 40 -40 35 -3 37 -5 42 -43 3 -22
11 -41 18 -41 6 -1 23 -2 36 -3 21 -1 25 -7 28 -38 3 -37 4 -38 43 -38 l40 0
5 120 5 120 158 3 157 3 0 -406 0 -405 -160 0 -160 0 0 120 0 120 -39 0 c-39
0 -40 1 -43 38 -3 35 -5 37 -43 42 -38 5 -40 7 -43 43 -3 36 -4 37 -42 37
l-40 0 -2 -197 -3 -198 -154 -3 c-102 -2 -157 1 -161 8 -4 6 -7 185 -8 398 -1
290 2 388 11 394 7 4 80 7 162 5 l150 -2 3 -37z m1390 0 c3 -37 4 -38 43 -38
39 0 39 0 39 -40 l0 -40 40 0 40 0 -2 -247 -3 -248 -37 -3 c-36 -3 -38 -5 -38
-38 0 -33 -1 -34 -40 -34 l-40 0 0 -40 0 -40 -370 0 -369 0 -1 398 c0 219 3
401 7 405 3 4 169 6 367 5 l361 -3 3 -37z m1137 -38 l0 -75 -289 -3 -288 -2 6
-23 c3 -12 6 -50 6 -84 l0 -63 120 0 120 0 0 -75 0 -75 -114 0 c-73 0 -117 -4
-122 -11 -5 -9 -7 -63 -5 -149 1 -20 8 -20 286 -20 l285 0 0 -75 0 -75 -404 0
-405 0 -3 38 c-3 36 -4 37 -45 40 l-43 3 0 319 c0 349 -3 330 61 330 26 0 29
3 29 33 0 19 3 37 7 40 4 4 185 6 402 5 l396 -3 0 -75z m915 40 c0 -42 -3 -40
60 -44 12 -1 15 -21 15 -121 l0 -120 -37 -3 -38 -3 0 -80 0 -79 40 0 40 0 0
-160 0 -160 -160 0 -160 0 0 160 0 160 -37 0 c-21 1 -76 2 -123 3 l-85 2 -5
-160 -5 -160 -162 -3 -163 -2 0 399 c0 310 3 400 13 404 6 3 191 6 410 6 l397
1 0 -40z m1055 -40 l0 -75 -282 -3 -283 -2 0 -85 0 -85 245 0 245 0 0 -39 c0
-39 1 -40 38 -43 l37 -3 3 -157 3 -158 -41 0 -40 0 0 -40 0 -40 -410 0 -411 0
3 73 3 72 288 3 288 2 -3 88 -3 87 -242 3 -243 2 0 35 c0 33 -1 34 -42 37
l-43 3 0 160 0 160 43 3 c40 3 42 5 42 36 0 18 3 36 7 39 4 4 185 6 402 5
l396 -3 0 -75z m-8862 31 c4 -1 7 -14 7 -31 0 -27 -3 -30 -30 -30 -26 0 -30 4
-30 28 0 34 6 41 28 37 9 -2 20 -4 25 -4z m-1563 -91 c0 -27 3 -30 30 -30 19
0 31 -5 32 -15 0 -8 1 -21 2 -27 1 -9 -20 -15 -59 -18 -56 -5 -60 -7 -63 -32
-3 -21 -9 -27 -30 -30 -21 -2 -28 -9 -32 -33 -4 -24 -10 -30 -30 -30 -25 0
-25 1 -28 93 l-3 92 31 0 c27 0 30 3 30 30 l0 30 60 0 60 0 0 -30z m378 -2 c3
-21 9 -27 30 -30 l27 -3 0 -90 0 -90 -27 -3 c-27 -3 -27 -2 -30 60 l-3 63 -63
3 c-62 3 -63 3 -60 30 2 21 9 28 31 30 20 3 27 9 27 26 0 30 9 38 40 34 19 -2
26 -10 28 -30z m387 -1 c0 -16 8 -23 30 -27 25 -4 30 -10 33 -38 3 -30 2 -32
-31 -32 -33 0 -34 1 -41 46 -8 62 -8 89 2 80 4 -4 7 -17 7 -29z m11540 -36
l-7 -61 -35 0 c-33 0 -34 1 -31 33 2 27 8 33 31 35 15 2 28 10 28 18 1 8 3 19
4 24 1 6 3 13 4 17 0 3 4 4 7 0 3 -3 3 -33 -1 -66z m443 37 c3 -21 9 -27 30
-30 21 -2 28 -9 30 -30 3 -27 2 -27 -60 -30 l-63 -3 -3 -63 c-3 -62 -3 -63
-30 -60 l-27 3 0 90 0 90 28 3 c20 3 27 9 27 26 0 30 9 38 40 34 19 -2 26 -10
28 -30z m427 5 c0 -12 4 -26 9 -30 8 -8 13 -9 41 -12 12 -1 15 -18 15 -86 l0
-85 -29 0 c-25 0 -30 4 -33 28 -2 21 -9 28 -30 30 -24 3 -28 8 -28 33 0 29 0
29 -59 29 -65 0 -73 5 -64 38 4 16 13 22 34 22 26 0 29 4 29 30 l0 31 58 -3
c51 -3 57 -5 57 -25z m-12985 -68 c4 -24 11 -31 33 -33 21 -3 27 -9 27 -27 0
-18 -6 -24 -27 -27 -22 -2 -29 -9 -33 -33 -4 -24 -10 -30 -30 -30 -21 0 -26 6
-28 33 -3 28 -7 32 -33 32 -24 0 -29 4 -29 24 0 19 6 25 27 28 19 2 29 10 31
23 6 39 12 46 34 43 17 -2 24 -11 28 -33z m2315 5 c0 -20 -6 -26 -27 -28 -25
-3 -28 0 -28 28 0 28 3 31 28 28 21 -2 27 -8 27 -28z m8105 0 c0 -25 -4 -30
-25 -30 -27 0 -41 20 -31 45 3 8 17 15 31 15 21 0 25 -5 25 -30z m2320 -5 c4
-24 11 -31 33 -33 21 -3 27 -9 27 -28 0 -20 -5 -24 -29 -24 -26 0 -30 -4 -33
-32 -2 -27 -7 -33 -28 -33 -21 0 -26 6 -28 33 -3 28 -7 32 -33 32 -24 0 -29 4
-29 24 0 19 6 25 27 28 19 2 29 10 31 23 6 39 12 46 34 43 17 -2 24 -11 28
-33z m-9430 5 c0 -5 -7 -10 -15 -10 -8 0 -15 5 -15 10 0 6 7 10 15 10 8 0 15
-4 15 -10z m-2422 -62 c3 -27 2 -27 -60 -30 -61 -3 -63 -4 -68 -33 l-5 -30
-90 0 -90 0 -3 33 -3 32 90 0 c90 0 91 0 91 24 0 31 12 35 80 33 52 -2 55 -4
58 -29z m11030 20 c7 -7 12 -20 12 -30 0 -16 10 -18 91 -18 l90 0 -3 -32 -3
-33 -90 0 -90 0 -5 30 c-5 28 -8 30 -47 27 -58 -5 -83 5 -83 32 0 12 3 26 7
29 11 12 108 8 121 -5z m-8831 -67 c3 -12 15 -21 32 -23 21 -2 27 -9 29 -35 3
-29 7 -33 33 -33 27 0 29 3 29 35 0 31 3 35 25 35 20 0 25 -5 25 -26 0 -18 6
-28 20 -31 19 -5 20 -12 18 -122 l-3 -116 -164 -3 c-91 -1 -170 -1 -176 2 -7
2 -9 21 -6 52 l6 49 50 5 50 5 3 94 c2 56 -1 98 -8 106 -8 10 -7 14 2 18 23
10 30 7 35 -12z m10190 -37 c-3 -3 -12 -4 -19 -1 -8 3 -5 6 6 6 11 1 17 -2 13
-5z m-5079 -50 c21 -6 22 -11 22 -115 l0 -109 -40 0 c-22 0 -41 3 -41 8 -1 7
-7 94 -8 125 -1 9 -8 17 -16 17 -10 0 -15 10 -15 33 0 19 3 37 7 40 8 9 60 9
91 1z m-8340 -297 c3 -23 0 -27 -23 -27 -30 0 -43 24 -25 46 19 22 45 13 48
-19z m13012 4 c0 -17 -18 -31 -41 -31 -5 0 -9 11 -9 25 0 20 5 25 25 25 18 0
25 -5 25 -19z m-12950 -66 c0 -20 -5 -25 -25 -25 -20 0 -25 5 -25 25 0 20 5
25 25 25 20 0 25 -5 25 -25z m12888 3 c-2 -15 -11 -24 -25 -26 -19 -3 -23 1
-23 22 0 21 5 26 26 26 21 0 25 -4 22 -22z m-13010 -66 c3 -18 -2 -22 -22 -22
-19 0 -26 5 -26 19 0 36 43 38 48 3z m13112 -14 c0 -5 -4 -8 -10 -8 -5 0 -10
10 -10 23 0 18 2 19 10 7 5 -8 10 -18 10 -22z m-11190 -53 c5 -28 9 -30 50
-32 25 -1 50 -2 57 -2 6 -1 13 -13 15 -28 2 -22 9 -29 30 -31 25 -3 27 -7 30
-60 3 -52 5 -57 28 -61 14 -1 27 -7 30 -11 3 -5 5 -86 5 -181 l0 -174 -30 -5
c-29 -5 -30 -7 -33 -68 -3 -61 -3 -62 -32 -62 -27 0 -30 -3 -30 -30 l0 -30
-60 0 -60 0 0 -30 0 -31 -92 3 -93 3 -3 28 c-3 26 -5 27 -63 27 -59 0 -59 0
-59 30 0 27 -3 30 -30 30 -29 0 -29 1 -32 62 -3 61 -4 63 -33 68 l-30 5 0 180
0 180 30 5 c29 5 30 7 33 62 3 53 5 57 30 60 21 2 28 9 30 30 3 25 7 27 60 30
48 3 57 6 60 23 7 45 8 46 99 43 l88 -3 5 -30z m596 -14 c2 -24 8 -49 14 -55
15 -15 316 -21 352 -7 23 9 27 16 30 58 l3 48 108 3 107 3 0 -68 c1 -37 2
-225 4 -418 2 -192 1 -356 -1 -362 -3 -7 -14 -13 -24 -13 -14 0 -19 7 -19 30
0 27 -3 30 -29 30 -26 0 -30 4 -33 33 -3 29 -6 32 -38 32 l-35 0 -3 -63 c-3
-59 -5 -63 -25 -60 -16 2 -22 10 -22 28 0 21 -5 26 -32 28 -28 3 -32 7 -35 35
-3 29 -6 32 -38 32 -32 0 -35 -3 -38 -32 -3 -29 -7 -33 -33 -33 -26 0 -29 -3
-29 -31 0 -26 -3 -30 -22 -27 -17 2 -23 10 -23 28 0 24 -2 25 -70 25 l-70 0 3
-27 c3 -25 0 -28 -27 -28 -34 0 -45 -12 -36 -40 9 -30 62 -28 67 3 3 20 9 22
66 25 61 3 62 2 62 -23 0 -25 0 -25 89 -25 85 0 90 1 93 23 4 32 62 32 66 0
l3 -21 1197 -1 1197 -1 0 -107 0 -108 -2325 0 c-1279 0 -2404 3 -2500 7 -96 4
-185 8 -197 8 -14 0 -23 6 -23 15 0 8 -7 15 -16 15 -8 0 -22 7 -30 15 -9 8
-27 15 -41 15 -15 0 -23 5 -20 13 2 6 13 11 23 9 10 -1 51 1 89 4 93 9 60 22
-57 23 -86 1 -120 16 -55 24 32 4 32 4 -5 5 -22 1 -41 8 -46 17 -4 9 -21 19
-38 24 -49 13 525 22 1464 23 l883 0 10 25 c5 13 9 35 9 48 0 19 6 24 33 27
31 3 32 5 35 52 5 76 -4 98 -36 96 -15 -1 -46 -2 -69 -1 l-43 1 0 145 c0 144
0 145 23 145 39 0 44 11 43 105 l-1 90 -30 5 c-30 5 -30 6 -33 79 -2 41 -1 80
2 88 4 11 25 13 87 11 l82 -3 3 -44z m8219 -41 l0 -85 -30 -5 -30 -5 -3 -84
c-3 -90 5 -111 44 -111 l25 0 -3 -142 -3 -143 -67 -3 c-38 -2 -68 -6 -69 -10
-1 -14 -1 -117 0 -129 1 -8 14 -13 31 -13 25 0 30 -4 30 -24 0 -14 4 -36 9
-50 l10 -24 943 -2 c519 -1 1125 -5 1348 -8 370 -6 402 -8 373 -22 -20 -9 -33
-22 -33 -33 0 -11 -9 -21 -20 -24 -11 -3 -20 -9 -20 -14 0 -4 9 -13 20 -19 11
-6 20 -17 20 -25 0 -7 5 -15 12 -17 22 -8 -1 -36 -34 -41 -45 -7 -1474 -12
-3683 -12 l-1850 0 0 109 0 110 1213 -2 1212 -3 0 26 c0 24 3 26 33 23 24 -2
32 -8 32 -23 0 -18 8 -20 93 -23 l92 -3 0 26 c0 25 1 26 63 23 56 -3 62 -5 65
-25 5 -31 58 -33 67 -3 9 28 -2 40 -36 40 -26 0 -29 3 -29 30 l0 30 -70 0 -70
0 0 -30 c0 -23 -4 -30 -20 -30 -16 0 -20 7 -20 30 0 27 -3 30 -30 30 -24 0
-30 4 -30 23 0 35 -15 49 -46 45 -25 -2 -29 -8 -32 -35 -3 -30 -6 -33 -38 -33
-19 0 -33 -3 -33 -7 5 -33 -3 -53 -21 -53 -18 0 -20 7 -20 60 0 55 -2 60 -25
66 -38 9 -55 -2 -55 -36 0 -27 -3 -30 -30 -30 -27 0 -30 -3 -30 -30 0 -23 -4
-30 -20 -30 -20 0 -20 7 -20 373 l0 372 129 -3 c162 -4 191 3 206 48 9 26 18
36 38 38 14 2 31 10 38 18 10 12 44 14 193 12 l181 -3 0 -85z m615 55 c5 -29
7 -30 62 -33 53 -3 57 -5 60 -30 2 -21 9 -28 30 -30 25 -3 27 -7 30 -60 3 -55
4 -57 33 -62 l30 -5 0 -180 0 -180 -30 -5 c-29 -5 -30 -8 -35 -65 -5 -57 -7
-60 -32 -63 -24 -3 -28 -8 -28 -33 0 -29 0 -29 -59 -29 -58 0 -60 -1 -63 -27
l-3 -28 -92 -3 -93 -3 0 31 0 30 -60 0 c-60 0 -60 0 -60 29 0 25 -4 30 -27 33
-26 3 -28 6 -33 63 -5 57 -6 60 -35 65 -25 4 -30 10 -29 33 1 15 2 96 3 181
l1 155 28 3 c25 3 27 6 30 60 3 53 5 57 30 60 21 2 28 9 30 30 3 25 7 27 60
30 48 3 57 6 60 23 7 45 8 46 99 43 l88 -3 5 -30z m-7448 -182 c2 -22 9 -29
33 -33 29 -5 30 -7 33 -68 3 -61 3 -62 32 -62 l30 0 0 -119 0 -120 -27 -3
c-22 -2 -29 -9 -33 -33 l-5 -30 -225 -3 c-124 -1 -235 0 -247 3 -15 3 -23 14
-25 33 -2 15 -10 28 -18 28 -8 1 -21 2 -27 3 -9 1 -13 26 -13 90 l0 90 28 3
c25 3 27 6 32 63 5 56 7 60 32 63 21 3 27 9 30 30 2 21 9 28 31 30 20 3 27 9
27 26 0 12 3 26 7 29 3 4 73 7 154 7 l148 0 3 -27z m5586 -5 c3 -24 8 -28 33
-28 25 0 29 -4 29 -29 0 -25 4 -30 28 -33 26 -3 27 -6 30 -65 3 -62 3 -63 32
-63 l30 0 0 -89 0 -90 -27 -3 c-22 -2 -29 -9 -33 -33 l-5 -30 -225 -3 c-124
-1 -235 0 -247 3 -18 4 -23 13 -23 35 0 27 -3 30 -30 30 l-30 0 0 120 0 120
30 0 c29 0 29 1 32 62 3 61 4 63 33 68 24 4 31 11 33 33 l3 28 152 -3 152 -3
3 -27z m-4720 -120 c3 -21 9 -27 30 -30 21 -2 28 -9 32 -33 4 -24 11 -31 33
-33 23 -3 27 -8 27 -33 0 -26 -3 -29 -30 -29 -27 0 -30 -3 -30 -30 0 -27 -3
-30 -30 -30 -27 0 -30 -3 -30 -30 l0 -30 -95 0 -95 0 0 30 c0 27 -3 30 -30 30
-27 0 -30 3 -30 30 0 27 -3 30 -31 30 -28 0 -30 2 -27 33 2 27 7 32 28 32 20
0 26 7 30 30 4 24 11 31 33 33 20 3 27 9 27 26 0 12 3 26 7 30 4 4 46 5 93 4
84 -3 85 -3 88 -30z m3730 0 c3 -21 9 -27 30 -30 21 -2 28 -9 32 -33 4 -23 10
-30 30 -30 21 0 26 -5 28 -32 3 -31 1 -33 -27 -33 -28 0 -31 -3 -31 -30 0 -27
-3 -30 -29 -30 -25 0 -30 -4 -33 -27 l-3 -28 -92 -3 -93 -3 0 31 c0 27 -3 30
-30 30 -27 0 -30 3 -30 30 0 27 -3 30 -30 30 -27 0 -30 3 -30 29 0 25 4 30 27
33 22 2 29 9 33 33 4 24 11 31 33 33 23 3 27 8 27 33 l0 30 93 -3 c92 -3 92
-3 95 -30z m-7328 -18 c0 -5 -9 -10 -19 -10 -11 0 -23 5 -26 10 -4 6 5 10 19
10 14 0 26 -4 26 -10z m10790 0 c0 -5 -11 -10 -25 -10 -14 0 -25 5 -25 10 0 6
11 10 25 10 14 0 25 -4 25 -10z m-12151 -85 l2 -85 -32 3 c-33 2 -39 12 -41
68 -1 18 -9 29 -27 37 -25 10 -25 10 -3 12 37 4 40 5 48 13 4 4 -5 7 -19 7
-15 0 -27 5 -27 11 0 6 -7 9 -15 5 -8 -3 -15 -1 -15 4 0 6 29 10 64 10 l63 0
2 -85z m13581 77 c0 -5 -14 -12 -31 -16 -30 -6 -31 -7 -26 -55 3 -28 0 -54 -6
-60 -8 -8 -3 -11 16 -11 15 0 27 -4 27 -8 0 -6 -36 -7 -93 -3 -8 1 -8 125 0
147 5 13 113 19 113 6z m-12768 -92 l3 -90 -32 0 -33 0 0 90 0 90 29 0 30 0 3
-90z m248 0 l0 -90 -30 0 -30 0 0 90 0 90 30 0 30 0 0 -90z m11400 0 l0 -90
-30 0 -30 0 0 90 0 90 30 0 30 0 0 -90z m248 -2 l3 -88 -30 0 -29 0 -4 74 c-4
100 -2 108 30 104 27 -3 27 -4 30 -90z m-11468 -378 c0 -27 -3 -30 -30 -30
-27 0 -30 3 -30 30 0 27 3 30 30 30 27 0 30 -3 30 -30z m1300 0 c0 -27 -3 -30
-30 -30 -27 0 -30 3 -30 30 0 27 3 30 30 30 27 0 30 -3 30 -30z m8440 0 c0
-27 -3 -30 -30 -30 -27 0 -30 3 -30 30 0 27 3 30 30 30 27 0 30 -3 30 -30z
m1298 3 c-2 -22 -9 -29 -30 -31 -25 -3 -28 0 -28 27 0 28 3 31 31 31 27 0 30
-3 27 -27z m-3938 -13 c0 -5 -12 -10 -26 -10 -14 0 -23 4 -19 10 3 6 15 10 26
10 10 0 19 -4 19 -10z m5407 -86 c-3 -3 -12 -4 -19 -1 -8 3 -5 6 6 6 11 1 17
-2 13 -5z m-7816 -287 c4 -5 0 -28 -8 -51 -42 -119 -78 -149 -169 -144 -35 2
-59 8 -62 16 -2 7 6 12 22 12 14 0 26 5 26 10 0 6 -4 10 -9 10 -15 0 -42 62
-47 108 -5 47 7 54 40 23 12 -11 32 -22 46 -26 22 -5 27 -1 37 25 11 30 14 31
65 29 29 -1 56 -7 59 -12z m208 -49 c11 -10 14 -10 18 0 3 8 28 12 74 12 57 0
67 -3 63 -15 -4 -10 -20 -15 -45 -15 -21 0 -39 -4 -39 -10 0 -5 7 -10 15 -10
8 0 15 -7 15 -15 0 -8 -7 -15 -15 -15 -9 0 -15 -9 -15 -25 l0 -26 -112 3 -113
3 -3 49 c-2 27 -1 55 2 62 7 18 136 19 155 2z m306 -53 l0 -60 -65 0 -65 0 -3
49 c-5 74 -2 77 70 74 l63 -3 0 -60z m65 14 c0 -43 3 -50 18 -47 13 3 17 13
17 48 l0 45 56 3 c41 2 59 -1 69 -13 16 -19 34 -20 26 0 -4 11 2 15 24 15 l30
0 0 -65 c0 -61 -1 -65 -23 -65 -13 0 -26 9 -32 22 -15 32 -35 35 -35 4 0 -21
-5 -26 -25 -26 -17 0 -25 6 -25 18 -1 16 -1 16 -14 -1 -11 -15 -25 -17 -72
-15 l-59 3 -3 63 c-3 61 -2 62 23 62 23 0 25 -3 25 -51z m376 34 c13 -17 15
-17 25 0 14 23 139 26 139 2 0 -11 -12 -15 -45 -15 -25 0 -45 -4 -45 -10 0 -5
9 -10 20 -10 11 0 20 -7 20 -15 0 -8 -9 -15 -20 -15 -11 0 -20 -4 -20 -10 0
-5 20 -10 45 -10 33 0 45 -4 45 -15 0 -24 -125 -21 -139 3 -10 16 -12 16 -25
0 -10 -13 -28 -18 -70 -18 l-56 0 0 65 0 65 56 0 c42 0 60 -5 70 -17z m312 5
c8 -8 15 -8 25 0 8 7 63 11 145 11 109 0 132 -2 132 -14 0 -11 -11 -15 -40
-15 -51 0 -53 -18 -2 -22 35 -3 37 -5 37 -38 l0 -35 -67 -3 c-49 -2 -68 1 -68
10 0 9 -3 9 -12 0 -7 -7 -39 -12 -75 -12 -49 0 -63 3 -63 15 0 11 12 15 45 15
25 0 45 5 45 10 0 6 -15 10 -34 10 -18 0 -39 7 -46 15 -21 26 -30 16 -24 -25
6 -38 5 -40 -20 -40 -21 0 -26 5 -26 25 0 16 -6 25 -15 25 -9 0 -15 -10 -15
-26 0 -22 -4 -25 -27 -22 -27 3 -28 6 -31 66 l-3 62 64 0 c34 0 68 -5 75 -12z
m450 0 c9 -9 12 -9 12 0 0 7 13 12 30 12 29 0 30 -1 30 -49 l0 -50 43 -3 c69
-5 48 -23 -30 -26 -53 -2 -73 1 -73 10 0 9 -3 9 -12 0 -16 -16 -110 -16 -126
0 -7 7 -12 30 -12 53 0 23 5 46 12 53 16 16 110 16 126 0z"/>
<path d="M12910 4780 c0 -5 7 -7 15 -4 8 4 15 8 15 10 0 2 -7 4 -15 4 -8 0
-15 -4 -15 -10z"/>
<path d="M12946 4568 c3 -5 10 -6 15 -3 13 9 11 12 -6 12 -8 0 -12 -4 -9 -9z"/>
<path d="M13436 4512 c-2 -4 -1 -14 5 -22 6 -10 9 -11 9 -2 0 6 7 12 16 12 8
0 13 -4 10 -9 -8 -12 80 -19 100 -8 7 4 14 15 14 22 0 12 -16 15 -74 15 -41 0
-77 -4 -80 -8z"/>
<path d="M13637 4371 c-4 -17 -3 -21 5 -13 5 5 8 16 6 23 -3 8 -7 3 -11 -10z"/>
<path d="M13681 4314 c0 -11 3 -14 6 -6 3 7 2 16 -1 19 -3 4 -6 -2 -5 -13z"/>
<path d="M13701 4314 c0 -11 3 -14 6 -6 3 7 2 16 -1 19 -3 4 -6 -2 -5 -13z"/>
<path d="M13725 4010 c-9 -27 1 -40 31 -40 20 0 24 5 24 30 0 25 -4 30 -24 30
-16 0 -27 -7 -31 -20z"/>
<path d="M12998 3902 c-11 -2 -18 -13 -18 -28 0 -20 -5 -24 -30 -24 -28 0 -30
-3 -30 -35 0 -32 2 -35 31 -35 27 0 30 -3 27 -27 -2 -22 -9 -29 -31 -31 -26
-3 -28 -6 -25 -40 3 -37 3 -37 52 -40 27 -2 54 2 59 7 6 6 24 11 39 11 24 0
28 4 28 29 0 25 -4 30 -27 33 -22 2 -28 8 -28 28 0 20 6 26 28 28 23 3 27 8
27 33 0 26 -3 29 -30 29 -26 0 -30 3 -30 29 0 30 -13 40 -42 33z m33 -62 c5 0
9 -11 9 -25 0 -21 -5 -25 -30 -25 -30 0 -37 11 -24 45 4 9 13 14 21 11 8 -3
19 -6 24 -6z"/>
<path d="M13104 3765 c-15 -37 2 -45 96 -45 l90 0 0 30 0 30 -90 0 c-71 0 -92
-3 -96 -15z"/>
<path d="M13872 3688 c3 -29 6 -33 31 -30 15 2 27 -1 27 -7 0 -6 14 -11 31
-11 17 0 28 4 24 10 -3 6 -17 10 -31 10 -20 0 -24 5 -24 30 0 27 -3 30 -31 30
-28 0 -30 -2 -27 -32z"/>
<path d="M12740 3650 c0 -5 11 -10 25 -10 14 0 25 5 25 10 0 6 -11 10 -25 10
-14 0 -25 -4 -25 -10z"/>
<path d="M11887 4010 c3 -11 9 -20 13 -20 5 0 6 9 3 20 -3 11 -9 20 -13 20 -5
0 -6 -9 -3 -20z"/>
<path d="M12182 3990 c-18 -29 -15 -33 12 -13 13 10 22 21 19 26 -7 12 -18 8
-31 -13z"/>
<path d="M12290 3990 c0 -5 4 -10 9 -10 6 0 13 5 16 10 3 6 -1 10 -9 10 -9 0
-16 -4 -16 -10z"/>
<path d="M12317 3973 c-7 -11 10 -40 18 -31 4 4 3 14 -3 24 -5 9 -12 12 -15 7z"/>
<path d="M12208 3963 c7 -3 16 -2 19 1 4 3 -2 6 -13 5 -11 0 -14 -3 -6 -6z"/>
<path d="M12028 2973 c7 -3 16 -2 19 1 4 3 -2 6 -13 5 -11 0 -14 -3 -6 -6z"/>
<path d="M2636 2995 c4 -8 8 -15 10 -15 2 0 4 7 4 15 0 8 -4 15 -10 15 -5 0
-7 -7 -4 -15z"/>
<path d="M2702 2790 c0 -14 2 -19 5 -12 2 6 2 18 0 25 -3 6 -5 1 -5 -13z"/>
<path d="M3160 2860 c0 -5 5 -10 10 -10 6 0 10 5 10 10 0 6 -4 10 -10 10 -5 0
-10 -4 -10 -10z"/>
<path d="M11820 2882 c0 -4 9 -8 20 -9 11 -1 20 2 20 8 0 5 -9 9 -20 9 -11 0
-20 -4 -20 -8z"/>
<path d="M12262 2870 c0 -14 2 -19 5 -12 2 6 2 18 0 25 -3 6 -5 1 -5 -13z"/>
<path d="M12260 2821 c0 -6 5 -13 10 -16 6 -3 10 1 10 9 0 9 -4 16 -10 16 -5
0 -10 -4 -10 -9z"/>
<path d="M1970 2930 c0 -27 -3 -30 -30 -30 -27 0 -30 -3 -30 -30 0 -27 3 -30
30 -30 27 0 30 3 30 30 0 27 3 30 29 30 34 0 45 12 36 40 -4 14 -15 20 -36 20
-26 0 -29 -3 -29 -30z"/>
<path d="M12949 2955 c-9 -38 -2 -50 29 -53 28 -3 32 -7 32 -33 0 -26 3 -29
30 -29 27 0 30 3 30 30 0 27 -3 30 -30 30 -27 0 -30 3 -30 30 0 27 -3 30 -30
30 -16 0 -30 -2 -31 -5z"/>
<path d="M3375 2740 c3 -5 8 -10 11 -10 2 0 4 5 4 10 0 6 -5 10 -11 10 -5 0
-7 -4 -4 -10z"/>
<path d="M11525 2690 c3 -5 8 -10 11 -10 2 0 4 5 4 10 0 6 -5 10 -11 10 -5 0
-7 -4 -4 -10z"/>
<path d="M11725 2640 c3 -5 8 -10 11 -10 2 0 4 5 4 10 0 6 -5 10 -11 10 -5 0
-7 -4 -4 -10z"/>
<path d="M12301 2364 c0 -11 3 -14 6 -6 3 7 2 16 -1 19 -3 4 -6 -2 -5 -13z"/>
<path d="M11820 2040 c0 -49 1 -50 30 -50 29 0 30 1 30 50 0 49 -1 50 -30 50
-29 0 -30 -1 -30 -50z"/>
<path d="M12010 2010 c0 -19 7 -20 90 -20 83 0 90 1 90 20 0 19 -7 20 -90 20
-83 0 -90 -1 -90 -20z"/>
<path d="M4918 1980 l3 -250 124 0 125 0 0 250 0 250 -127 0 -128 0 3 -250z
m103 -2 c7 -80 6 -185 -2 -200 -6 -11 -21 -18 -39 -18 l-30 0 0 115 0 115 35
0 c21 0 35 -5 36 -12z"/>
<path d="M7868 1980 l3 -250 84 0 85 0 0 40 0 40 40 0 40 0 0 170 0 170 -40 0
-40 0 0 40 0 40 -87 0 -88 0 3 -250z"/>
<path d="M9840 2145 l0 -85 125 0 125 0 0 85 0 85 -125 0 -125 0 0 -85z"/>
<path d="M2560 1194 c0 -22 4 -25 28 -22 19 2 28 9 30 26 3 19 -1 22 -27 22
-27 0 -31 -4 -31 -26z"/>
<path d="M2992 1198 c2 -17 11 -24 31 -26 23 -3 27 0 27 22 0 22 -4 26 -31 26
-26 0 -30 -3 -27 -22z"/>
<path d="M2622 1103 c3 -55 4 -58 31 -61 27 -3 27 -3 27 57 l0 61 -30 0 -31 0
3 -57z"/>
<path d="M2930 1100 l0 -60 30 0 30 0 0 60 0 60 -30 0 -30 0 0 -60z"/>
<path d="M2690 1010 c0 -25 4 -30 25 -30 21 0 25 5 25 30 0 25 -4 30 -25 30
-21 0 -25 -5 -25 -30z"/>
<path d="M2874 1026 c-10 -26 4 -48 28 -44 17 2 23 10 23 28 0 18 -6 26 -23
28 -13 2 -25 -3 -28 -12z"/>
<path d="M3548 1233 c-12 -3 -18 -14 -18 -32 0 -23 -4 -27 -27 -26 l-28 0 0
-130 0 -130 39 -3 c54 -5 83 4 89 27 7 27 -4 39 -38 43 l-30 3 0 90 0 90 31 3
c24 2 33 9 36 27 8 37 -10 50 -54 38z"/>
<path d="M3848 1233 c0 -5 -2 -62 -2 -128 l-1 -120 -32 -3 c-29 -3 -33 -7 -33
-32 0 -23 5 -31 26 -36 30 -8 48 7 49 39 0 16 7 23 30 27 24 4 30 10 30 30 0
20 6 26 30 30 28 5 30 9 32 50 2 73 -5 91 -36 88 -23 -3 -26 1 -29 30 -3 28
-7 32 -33 32 -16 0 -30 -3 -31 -7z"/>
<path d="M3605 1112 c-3 -3 -5 -34 -5 -69 l0 -63 35 0 35 0 0 59 c0 37 -5 63
-12 67 -15 10 -46 13 -53 6z"/>
<path d="M1168 553 c6 -2 18 -2 25 0 6 3 1 5 -13 5 -14 0 -19 -2 -12 -5z"/>
<path d="M1225 550 c3 -5 19 -10 35 -10 16 0 32 5 35 10 4 6 -10 10 -35 10
-25 0 -39 -4 -35 -10z"/>
<path d="M1288 513 c6 -2 18 -2 25 0 6 3 1 5 -13 5 -14 0 -19 -2 -12 -5z"/>
<path d="M11073 1227 c-4 -7 -7 -21 -8 -32 0 -16 -6 -19 -27 -17 -27 3 -28 2
-29 -52 -1 -31 -2 -62 -3 -68 -1 -7 12 -15 29 -18 17 -3 30 -12 31 -20 1 -8 2
-21 2 -27 1 -7 15 -13 32 -13 27 0 30 -3 30 -30 0 -23 5 -31 24 -36 34 -8 46
2 46 36 0 25 -4 29 -32 32 l-33 3 0 125 0 125 -27 2 c-15 1 -31 -4 -35 -10z"/>
<path d="M11384 1230 c-6 -6 -9 -22 -6 -36 4 -20 10 -24 39 -24 l34 0 -3 -92
-3 -93 -32 -3 -33 -3 0 64 c0 35 -2 66 -5 69 -3 2 -18 3 -35 0 -30 -4 -30 -5
-30 -68 l0 -63 33 -3 c25 -2 32 -8 33 -26 2 -36 16 -43 75 -40 l54 3 0 130 0
130 -25 0 c-20 0 -26 6 -30 30 -4 23 -11 31 -30 33 -14 2 -30 -2 -36 -8z"/>
<path d="M13920 566 c0 -2 7 -6 15 -10 8 -3 15 -1 15 4 0 6 -7 10 -15 10 -8 0
-15 -2 -15 -4z"/>
<path d="M13855 520 c-28 -7 -28 -8 12 -9 23 0 45 4 48 9 7 11 -16 11 -60 0z"/>
<path d="M13977 524 c-8 -8 1 -24 14 -24 5 0 9 7 9 15 0 15 -12 20 -23 9z"/>
<path d="M11935 1222 c-3 -3 -5 -16 -5 -29 0 -21 4 -24 28 -21 38 4 44 43 8
50 -14 3 -28 3 -31 0z"/>
<path d="M12362 1198 c2 -17 11 -24 31 -26 23 -3 27 0 27 22 0 22 -4 26 -31
26 -26 0 -30 -3 -27 -22z"/>
<path d="M11992 1103 c3 -54 5 -58 28 -58 23 0 25 4 28 58 l3 57 -31 0 -31 0
3 -57z"/>
<path d="M12300 1099 c0 -60 0 -60 28 -57 26 3 27 6 30 61 l3 57 -31 0 -30 0
0 -61z"/>
<path d="M12050 1011 c0 -28 3 -31 31 -31 27 0 30 3 27 28 -2 21 -9 28 -30 30
-25 3 -28 0 -28 -27z"/>
<path d="M12240 1010 c0 -25 4 -30 24 -30 26 0 36 14 28 43 -3 10 -14 17 -28
17 -20 0 -24 -5 -24 -30z"/>
<path d="M4550 1070 c0 -89 0 -90 25 -90 25 0 25 1 25 90 0 89 0 90 -25 90
-25 0 -25 -1 -25 -90z"/>
<path d="M4800 1070 c0 -89 0 -90 25 -90 25 0 25 1 25 90 0 89 0 90 -25 90
-25 0 -25 -1 -25 -90z"/>
<path d="M10130 1070 c0 -89 0 -90 25 -90 25 0 25 1 25 90 0 89 0 90 -25 90
-25 0 -25 -1 -25 -90z"/>
<path d="M10380 1070 c0 -89 0 -90 25 -90 25 0 25 1 25 90 0 89 0 90 -25 90
-25 0 -25 -1 -25 -90z"/>
<path d="M5600 1130 c0 -27 -3 -30 -30 -30 -25 0 -30 -4 -30 -24 0 -19 6 -25
28 -28 21 -2 28 -9 30 -30 3 -22 9 -28 27 -28 18 0 24 6 27 28 2 21 9 28 31
30 21 3 27 9 27 28 0 20 -5 24 -30 24 -27 0 -30 3 -30 30 0 25 -4 30 -25 30
-21 0 -25 -5 -25 -30z"/>
<path d="M9330 1130 c0 -27 -3 -30 -30 -30 -25 0 -30 -4 -30 -24 0 -19 6 -25
28 -28 21 -2 28 -9 30 -30 3 -22 9 -28 27 -28 18 0 24 6 27 28 2 21 9 28 31
30 21 3 27 9 27 28 0 20 -5 24 -30 24 -27 0 -30 3 -30 30 0 25 -4 30 -25 30
-21 0 -25 -5 -25 -30z"/>
<path d="M6790 215 c0 -27 4 -35 18 -34 10 0 12 3 5 6 -7 2 -13 15 -13 28 0
18 6 25 28 28 25 4 25 4 -5 6 -31 1 -33 -1 -33 -34z"/>
<path d="M6880 190 c-12 -8 -11 -10 8 -10 12 0 22 5 22 10 0 13 -11 13 -30 0z"/>
<path d="M7122 218 c4 -46 28 -49 28 -4 0 26 -4 36 -16 36 -11 0 -14 -8 -12
-32z"/>
<path d="M7570 221 c0 -34 13 -47 28 -28 11 14 -2 57 -18 57 -5 0 -10 -13 -10
-29z"/>
<path d="M7880 240 c0 -5 7 -10 15 -10 8 0 15 5 15 10 0 6 -7 10 -15 10 -8 0
-15 -4 -15 -10z"/>
<path d="M8030 241 c0 -6 17 -11 38 -13 27 -2 40 -9 47 -25 8 -19 18 -23 52
-23 24 0 43 5 43 10 0 6 -18 10 -40 10 -34 0 -41 4 -46 25 -5 22 -12 25 -50
25 -24 0 -44 -4 -44 -9z"/>
<path d="M8330 215 c0 -24 5 -35 15 -35 10 0 15 11 15 35 0 24 -5 35 -15 35
-10 0 -15 -11 -15 -35z"/>
<path d="M1320 4376 c0 -16 7 -27 20 -31 27 -8 38 0 36 27 -1 17 -8 24 -28 26
-24 3 -28 0 -28 -22z"/>
<path d="M3352 4360 c0 -14 2 -19 5 -12 2 6 2 18 0 25 -3 6 -5 1 -5 -13z"/>
<path d="M1262 4314 c2 -21 9 -30 26 -32 18 -3 22 1 22 22 0 14 -4 26 -9 26
-5 0 -17 3 -26 6 -13 6 -16 1 -13 -22z"/>
<path d="M3440 4295 c0 -30 -3 -35 -24 -35 -13 0 -26 6 -29 13 -2 7 -8 8 -13
3 -5 -5 -4 -11 4 -13 6 -3 12 -11 12 -18 0 -17 14 -22 56 -17 27 3 33 9 36 31
3 24 7 26 55 29 60 4 93 -10 93 -38 0 -11 5 -20 10 -20 6 0 10 7 10 15 0 8 7
15 15 15 10 0 15 11 15 35 l0 35 -120 0 -120 0 0 -35z m28 -30 c-3 -3 -9 2
-12 12 -6 14 -5 15 5 6 7 -7 10 -15 7 -18z m-1 -21 c-3 -3 -12 -4 -19 -1 -8 3
-5 6 6 6 11 1 17 -2 13 -5z"/>
<path d="M1197 4023 c-3 -5 -5 -18 -3 -29 2 -14 11 -19 32 -19 24 0 29 4 29
25 0 20 -6 26 -27 28 -14 2 -29 -1 -31 -5z"/>
<path d="M1945 3898 c-2 -7 -5 -22 -7 -33 -2 -13 -12 -21 -31 -23 -23 -3 -27
-8 -27 -33 l0 -29 -96 0 -95 0 3 -27 3 -28 90 0 90 0 3 28 c4 37 47 39 54 2 6
-30 2 -35 -29 -35 -19 0 -23 -5 -23 -30 0 -25 4 -30 24 -30 14 0 28 -4 31 -10
3 -5 33 -10 66 -10 l59 0 0 39 c0 36 -3 40 -27 43 -22 2 -29 9 -31 31 -3 24 0
27 27 27 29 0 31 3 31 35 0 32 -2 35 -30 35 -27 0 -30 3 -30 30 0 25 -4 30
-25 30 -14 0 -27 -6 -30 -12z m55 -84 c0 -20 -5 -24 -30 -24 -25 0 -30 4 -30
24 0 18 6 26 23 28 31 5 37 1 37 -28z"/>
<path d="M2190 3650 c0 -5 11 -10 25 -10 14 0 25 5 25 10 0 6 -11 10 -25 10
-14 0 -25 -4 -25 -10z"/>
<path d="M3100 2040 c0 -49 1 -50 30 -50 29 0 30 1 30 50 0 49 -1 50 -30 50
-29 0 -30 -1 -30 -50z"/>
<path d="M350 1959 l-55 -6 73 -1 c70 -2 91 2 55 9 -10 2 -43 1 -73 -2z"/>
<path d="M205 1919 c4 -12 -4 -18 -32 -23 -21 -3 -50 -6 -65 -6 -15 0 -29 -3
-31 -7 -3 -5 16 -8 41 -7 26 0 117 2 202 3 85 1 149 5 143 8 -18 7 -16 23 2
23 8 0 15 6 15 14 0 12 -25 14 -140 13 -124 -2 -139 -4 -135 -18z"/>
</g>
</svg>
